<svg width="76" height="109" viewBox="0 0 76 109" fill="none" xmlns="http://www.w3.org/2000/svg">
<path fill-rule="evenodd" clip-rule="evenodd" d="M38 5.4286C32.5714 5.4286 27.4631 6.75317 22.9683 9.0956C22.3324 9.40626 21.6004 9.4563 20.9282 9.23507C20.256 9.01383 19.6968 8.53881 19.3697 7.91125C19.0427 7.28369 18.9736 6.55321 19.1774 5.87549C19.3811 5.19777 19.8414 4.62641 20.4603 4.28317C25.8757 1.46142 31.8935 -0.00810902 38 3.36552e-05C46.3763 3.36552e-05 54.1283 2.71432 60.4118 7.3096C60.7026 7.51888 60.949 7.78364 61.1369 8.08861C61.3248 8.39359 61.4505 8.73275 61.5068 9.08653C61.563 9.44032 61.5486 9.80173 61.4645 10.1499C61.3804 10.4981 61.2282 10.8263 61.0166 11.1154C60.8051 11.4045 60.5384 11.6488 60.232 11.8344C59.9255 12.0199 59.5854 12.1429 59.2312 12.1964C58.877 12.2499 58.5157 12.2327 58.1682 12.1459C57.8206 12.059 57.4937 11.9042 57.2063 11.6905C51.6347 7.61038 44.9057 5.41649 38 5.4286ZM64.144 14.1469C64.4248 13.9272 64.7462 13.7651 65.0897 13.6697C65.4333 13.5743 65.7922 13.5475 66.1461 13.5908C66.5 13.6342 66.8419 13.7468 67.1522 13.9224C67.4626 14.0979 67.7353 14.3328 67.9548 14.6137C70.9595 18.4549 73.1944 22.84 74.537 27.5283C74.7113 28.2126 74.6121 28.9379 74.2605 29.5502C73.9088 30.1626 73.3324 30.6137 72.6535 30.808C71.9746 31.0023 71.2467 30.9243 70.6243 30.5907C70.002 30.2571 69.5341 29.6941 69.3201 29.0212C68.1678 25.0044 66.2508 21.2478 63.6744 17.9577C63.4549 17.6767 63.2929 17.3552 63.1977 17.0116C63.1026 16.6679 63.076 16.3089 63.1196 15.955C63.1632 15.6011 63.2761 15.2593 63.4519 14.949C63.6277 14.6388 63.8628 14.3662 64.144 14.1469ZM10.7431 15.428C11.0342 15.6339 11.2819 15.895 11.472 16.1966C11.6621 16.4981 11.791 16.8342 11.8512 17.1855C11.9115 17.5369 11.9019 17.8967 11.8231 18.2443C11.7443 18.592 11.5977 18.9207 11.3919 19.2117C7.5015 24.7034 5.41731 31.27 5.42857 38V70.5714C5.42857 71.2913 5.1426 71.9817 4.63357 72.4907C4.12455 72.9998 3.43416 73.2857 2.71428 73.2857C1.99441 73.2857 1.30402 72.9998 0.794996 72.4907C0.285969 71.9817 0 71.2913 0 70.5714V38C0 29.8382 2.57857 22.2707 6.95943 16.074C7.37553 15.4866 8.00792 15.0886 8.7175 14.9674C9.42707 14.8463 10.1557 15.012 10.7431 15.428ZM73.2857 35.2857C74.0056 35.2857 74.6959 35.5717 75.205 36.0807C75.714 36.5898 76 37.2801 76 38V70.5714C76.0122 79.4438 72.9083 88.0387 67.2301 94.8561C66.7694 95.4097 66.1076 95.7576 65.3904 95.8233C64.6732 95.8889 63.9593 95.667 63.4057 95.2063C62.8521 94.7456 62.5042 94.0838 62.4385 93.3666C62.3729 92.6494 62.5948 91.9354 63.0555 91.3819C67.9225 85.5404 70.5826 78.1747 70.5714 70.5714V38.0027C70.5714 37.2829 70.8574 36.5925 71.3664 36.0834C71.8754 35.5744 72.5658 35.2857 73.2857 35.2857ZM7.87685 89.1561C8.16496 88.9458 8.4917 88.7943 8.8384 88.7104C9.18509 88.6264 9.54494 88.6116 9.89735 88.6668C10.2498 88.722 10.5878 88.8462 10.8923 89.0321C11.1967 89.2181 11.4614 89.4622 11.6714 89.7506C15.6 95.1395 21.0844 99.1964 27.3871 101.376C30.8021 102.55 34.3888 103.147 38 103.143C38.7199 103.143 39.4102 103.429 39.9193 103.938C40.4283 104.447 40.7143 105.137 40.7143 105.857C40.7143 106.577 40.4283 107.267 39.9193 107.776C39.4102 108.285 38.7199 108.571 38 108.571C33.7866 108.576 29.6019 107.878 25.6174 106.509C18.2655 103.967 11.868 99.236 7.28514 92.9507C7.07467 92.6628 6.92301 92.3362 6.83884 91.9896C6.75467 91.643 6.73963 91.2832 6.79458 90.9308C6.84953 90.5784 6.9734 90.2403 7.15911 89.9358C7.34481 89.6312 7.58871 89.3663 7.87685 89.1561ZM59.109 98.9818C59.4928 99.5906 59.6193 100.327 59.4605 101.029C59.3017 101.731 58.8706 102.341 58.2621 102.725C54.7243 104.961 50.8398 106.593 46.7671 107.556C46.4201 107.638 46.0604 107.651 45.7084 107.594C45.3565 107.537 45.0192 107.411 44.7158 107.224C44.4125 107.036 44.1491 106.791 43.9405 106.502C43.732 106.213 43.5825 105.885 43.5005 105.538C43.4185 105.191 43.4057 104.831 43.4627 104.479C43.5198 104.128 43.6456 103.79 43.833 103.487C44.0204 103.184 44.2657 102.92 44.5549 102.712C44.8441 102.503 45.1716 102.354 45.5186 102.272C49.0076 101.447 52.3353 100.048 55.366 98.1323C55.9747 97.7484 56.7109 97.622 57.4128 97.7808C58.1147 97.9396 58.7248 98.3733 59.109 98.9818ZM10.8571 38.6379C10.8571 23.7907 24.4666 13.5715 38 13.5715C51.5334 13.5715 65.1428 23.7907 65.1428 38.6379V66.6194C65.1428 69.0026 64.6814 71.5404 63.3785 73.5734C61.9834 75.7503 59.7115 77.1753 56.7014 77.1753C53.7618 77.1753 51.3705 75.8181 49.7854 73.7689C48.241 71.7766 47.5 69.2007 47.5 66.6194V41.3576C47.5073 38.7574 46.5005 36.2569 44.6934 34.3873C43.8248 33.4893 42.7849 32.7746 41.6352 32.2855C40.4855 31.7964 39.2494 31.5429 38 31.54C35.5028 31.54 33.0953 32.5552 31.3066 34.39C29.4995 36.2596 28.4926 38.7601 28.5 41.3603V72.8894C28.5 80.1366 32.1263 86.8409 40.2474 89.7316C40.9196 89.9776 41.4674 90.4791 41.7715 91.1271C42.0757 91.775 42.1116 92.5169 41.8715 93.1912C41.6313 93.8655 41.1345 94.4176 40.4893 94.7274C39.844 95.0372 39.1025 95.0796 38.4261 94.8453C27.8404 91.0779 23.0714 82.099 23.0714 72.8867V41.3603C23.0642 37.3444 24.6243 33.4841 27.4197 30.6009C28.7938 29.1835 30.438 28.056 32.2553 27.2849C34.0725 26.5138 36.0259 26.1148 38 26.1115C41.9818 26.1115 45.7873 27.7346 48.5803 30.6009C51.3757 33.4841 52.9358 37.3444 52.9285 41.3603V66.6222C52.9285 68.2182 53.3954 69.5644 54.0767 70.4493C54.7173 71.2772 55.5695 71.7494 56.7041 71.7494C57.7681 71.7494 58.3598 71.3423 58.8077 70.6447C59.3505 69.8033 59.7143 68.419 59.7143 66.6222V38.6379C59.7143 27.4795 49.2724 19 38 19C26.7276 19 16.2857 27.4767 16.2857 38.6379V72.6994C16.2857 75.5847 16.7173 78.4619 17.5478 80.8694C18.3947 83.315 19.5646 85.0359 20.8674 85.9587C21.1581 86.1651 21.4053 86.4267 21.5949 86.7286C21.7844 87.0305 21.9127 87.3668 21.9723 87.7183C22.0319 88.0698 22.0217 88.4296 21.9423 88.7771C21.8628 89.1246 21.7157 89.4531 21.5093 89.7438C21.303 90.0345 21.0414 90.2816 20.7394 90.4712C20.4375 90.6608 20.1012 90.7891 19.7498 90.8487C19.3983 90.9083 19.0385 90.8981 18.691 90.8186C18.3434 90.7392 18.015 90.5921 17.7243 90.3857C15.1566 88.5671 13.4656 85.6846 12.4151 82.6446C11.3539 79.5693 10.8544 76.0787 10.8544 72.6967V38.6406L10.8571 38.6379Z" fill="#A9DCFF" fill-opacity="0.35"/>
<path fill-rule="evenodd" clip-rule="evenodd" d="M37.9999 38C38.7198 38 39.4102 38.286 39.9192 38.795C40.4282 39.3041 40.7142 39.9944 40.7142 40.7143V67.279C40.7142 73.4079 42.2016 77.501 44.6988 80.0714C47.1796 82.6283 51.1045 84.1429 56.9999 84.1429C57.7198 84.1429 58.4102 84.4288 58.9192 84.9379C59.4282 85.4469 59.7142 86.1373 59.7142 86.8572C59.7142 87.577 59.4282 88.2674 58.9192 88.7764C58.4102 89.2855 57.7198 89.5714 56.9999 89.5714C50.2278 89.5714 44.6526 87.8207 40.8011 83.8524C36.9685 79.9004 35.2856 74.2032 35.2856 67.279V40.7143C35.2856 39.9944 35.5716 39.3041 36.0806 38.795C36.5897 38.286 37.2801 38 37.9999 38Z" fill="#A9DCFF" fill-opacity="0.35"/>
</svg>
