<svg width="37" height="27" viewBox="0 0 37 27" fill="none" xmlns="http://www.w3.org/2000/svg">
<path d="M7.34373 8.48762H3.53749C2.86451 8.48762 1.5 8.5 1 8.5C1 9 1 10.3291 1 10.9938V16.0062C1 16.6709 1 18 1 18.5C1.5 18.5 2.86451 18.5124 3.53749 18.5124H7.34373M7.34373 8.48762V18.5124M7.34373 8.48762L17.4937 1.44524C17.8613 1.19403 18.2896 1.04319 18.7352 1.00798C19.1807 0.972775 19.6278 1.05445 20.0312 1.24474C20.426 1.46971 20.7522 1.79556 20.9755 2.18805C21.1987 2.58054 21.3108 3.02518 21.2999 3.47525V23.5248C21.2893 23.9983 21.143 24.4591 20.878 24.8539C20.6131 25.2487 20.2403 25.5612 19.8028 25.7553C19.3995 25.9456 18.9524 26.0272 18.5068 25.992C18.0612 25.9568 17.6329 25.806 17.2653 25.5548L7.34373 18.5124M27 8H29.5V18.5H26.5M33 2.18805H35.5V25.5548H32.5" stroke="white" stroke-width="2" stroke-linecap="round" stroke-linejoin="round"/>
</svg>
