<svg width="40" height="40" viewBox="0 0 40 40" fill="none" xmlns="http://www.w3.org/2000/svg">
<path d="M36.6667 0H3.33333C2.44928 0 1.60143 0.351189 0.976311 0.976311C0.351189 1.60143 0 2.44928 0 3.33333V36.6667C0 37.5507 0.351189 38.3986 0.976311 39.0237C1.60143 39.6488 2.44928 40 3.33333 40H36.6667C37.5507 40 38.3986 39.6488 39.0237 39.0237C39.6488 38.3986 40 37.5507 40 36.6667V3.33333C40 2.44928 39.6488 1.60143 39.0237 0.976311C38.3986 0.351189 37.5507 0 36.6667 0ZM29.1543 21.6667H11.8086C11.3666 21.6667 10.9426 21.4911 10.6301 21.1785C10.3175 20.866 10.1419 20.442 10.1419 20C10.1419 19.558 10.3175 19.1341 10.6301 18.8215C10.9426 18.5089 11.3666 18.3333 11.8086 18.3333H29.1543C29.5963 18.3333 30.0202 18.5089 30.3328 18.8215C30.6454 19.1341 30.821 19.558 30.821 20C30.821 20.442 30.6454 20.866 30.3328 21.1785C30.0202 21.4911 29.5963 21.6667 29.1543 21.6667Z" fill="#4E697C"/>
</svg>
