<svg width="85" height="130" viewBox="0 0 85 130" fill="none" xmlns="http://www.w3.org/2000/svg">
<g clip-path="url(#clip0_3029_93841)">
<path fill-rule="evenodd" clip-rule="evenodd" d="M38.8143 1.27153L39.469 1.95523C40.6626 1.93339 41.5879 1.47249 42.2425 0.694858L40.1018 0.559427L38.8165 1.27153H38.8143ZM42.8426 1.07275C43.3096 1.39167 43.53 1.48778 44.3156 1.51181L44.7345 1.52273L45.2975 1.61666L45.878 0.775679L48.4661 1.55113L48.5948 1.35672L47.914 0.810629L47.8812 -0.00195312L46.2119 0.373757L42.7946 0.823735L42.8426 1.07057V1.07275ZM31.6481 5.08542L31.6786 4.36021L31.6939 3.79446C30.7621 3.7901 30.0703 4.36458 29.3459 4.84514C29.791 5.43929 30.7555 5.12037 31.6481 5.08542ZM26.9935 7.44235L27.0175 6.49652C25.6383 6.49215 23.7464 7.16493 23.0634 8.34012L22.0247 8.84252L22.2582 9.2226L24.5473 8.06707L26.9913 7.44453L26.9935 7.44235ZM31.216 7.21517C34.5874 5.11163 35.6851 6.02906 38.9387 4.70753C40.8503 3.92989 54.2357 1.90936 54.9275 3.90587L52.2019 4.2357L51.1523 4.17454C49.1534 4.11557 51.4054 2.91198 49.4415 3.91242C48.8654 4.20512 48.8327 4.34711 48.8589 4.39516C48.7803 4.35803 48.5163 4.28158 47.7459 4.20294C45.9587 4.01945 44.9833 4.76214 43.7002 4.99805C40.4488 5.59438 38.4433 6.0247 35.4516 6.99892C32.8199 7.85519 30.8101 8.95174 28.1784 9.94562C27.0917 10.3541 25.8675 10.5966 24.7742 11.1842C22.723 12.2829 22.0509 11.1973 24.1436 10.3803C26.7273 9.37113 28.7501 8.75515 31.216 7.21736V7.21517ZM40.4684 7.91854C42.7902 7.75689 42.2141 6.91592 44.7433 6.57734C46.6592 6.32177 48.2609 6.70185 50.262 6.42662C53.7666 5.94606 56.311 6.50744 59.7588 6.44409C63.1914 6.38075 69.5829 9.40172 65.3212 8.61098C61.1401 7.83553 59.462 7.28944 55.3705 7.65204C54.1615 7.75908 51.1894 7.33313 50.9014 7.379C48.7323 7.72194 50.5151 8.08891 46.2402 7.78092C45.3106 8.36633 35.2028 10.5769 32.0845 11.7302C28.1238 13.1916 23.7399 15.9308 19.609 16.2366L18.7667 17.8071C16.1001 15.0352 20.9881 14.7949 23.6853 13.7835C25.8129 12.9862 29.7517 11.3698 31.8466 10.7298C34.3212 9.9762 38.1226 8.08018 40.464 7.91635L40.4684 7.91854ZM55.5559 3.92334L58.0851 4.35803L58.5041 3.25274C57.2231 3.21561 55.6541 2.7416 55.5559 3.92334ZM17.6952 18.9146L17.7258 17.7787L17.0973 17.7613L16.6783 17.7482C15.8709 17.9535 15.7029 18.0125 15.6069 18.6634L17.6931 18.9146H17.6952ZM17.9309 21.1252C18.1819 21.9705 17.2217 22.7962 16.7264 23.2593L16.4274 22.6389L15.297 22.6346L15.4498 22.8028L13.6189 24.1527L13.0232 23.4668C12.0434 24.0347 12.0914 25.1378 10.9109 24.3624L11.8994 22.8836L13.3505 22.9032C14.2627 22.1475 16.6587 20.732 17.9309 21.1252ZM18.0989 19.6835L18.5332 20.9657L22.0705 19.8015C21.8959 19.0762 21.1125 18.1195 20.2702 18.6437L20.5953 19.4913L18.0968 19.4651V19.6813H18.0989V19.6835ZM44.117 10.6315C40.7346 10.9766 23.1223 16.6887 22.2887 19.4279C24.5429 19.1374 30.8363 15.8019 32.7784 14.7206C34.7707 13.6132 42.6418 11.9989 45.099 12.012C52.1692 12.0448 50.1943 11.1492 57.9694 12.9666C58.1113 12.9994 72.4983 16.479 69.0156 14.5874C66.5825 13.268 60.9044 12.8093 57.1948 11.2235C53.4742 9.63326 48.3679 10.199 44.117 10.6315ZM51.3182 14.0304C49.4175 13.9692 22.1665 17.0557 37.5246 16.8832C40.5186 16.8482 40.9616 15.5922 42.4236 15.673C45.7994 15.8565 45.926 15.199 48.1518 15.2449C53.1556 15.3519 55.9422 16.7608 59.9945 16.9421C61.3081 17.0011 70.3467 19.1112 71.3942 19.6158C73.0897 20.4349 74.5343 21.3895 76.5812 21.7499C79.0907 22.1933 75.5665 19.8058 74.2681 19.3493C68.5137 17.3244 57.4326 14.2248 51.316 14.0282L51.3182 14.0304ZM26.6967 20.9308C28.0278 20.8259 29.9569 20.874 30.0398 19.2772C27.5761 19.1876 24.1654 22.1191 20.5888 22.4576L15.5196 25.4764L13.6779 26.5162L12.5977 26.6167L12.7199 26.8526L10.1471 28.0321L10.0926 29.4891C13.4727 29.5066 13.4465 26.6866 16.7307 26.2453L19.4912 25.2405L24.4098 22.8355L24.7197 22.1343L25.8151 22.3921L26.6945 20.9308H26.6967ZM35.7615 20.009C34.9039 21.6603 42.8928 18.9386 44.776 19.0959C47.3292 19.31 48.0144 18.5542 50.3864 18.6612C52.7104 18.7661 54.227 19.3886 56.7169 19.4585C60.9874 19.5786 63.3812 20.6271 67.2633 22.0601C69.5895 22.9185 69.9692 22.1606 72.2016 23.7202C72.4852 23.919 76.9063 25.6992 77.0394 25.6861C80.2996 25.3716 70.2747 21.1317 69.6571 21.0553C62.8379 20.1881 52.8522 16.6341 45.9893 17.6608C44.141 17.9382 36.4554 18.6678 35.7593 20.009H35.7615ZM34.9933 21.3458C34.5984 19.9544 28.7087 22.995 27.4496 23.7835C25.1539 25.2208 22.6466 26.1317 19.9974 27.13C16.6914 28.3751 8.4712 33.1413 7.20335 36.0334C8.03912 36.0662 12.8792 32.497 13.8372 31.7128C14.5966 31.0924 19.286 29.2466 20.962 28.0365C21.3024 27.7918 23.8752 26.4288 24.3552 26.2562C27.5696 25.0811 24.412 27.3703 27.7834 24.6879C28.4948 24.1199 35.2181 22.1322 34.9955 21.348L34.9933 21.3458ZM57.7447 10.0614L63.3659 11.348L63.3136 11.538L67.2764 11.6538L69.1552 12.4795L69.6419 11.4419L65.6114 10.874C63.8177 9.49783 58.6568 9.51093 56.2542 9.43885L57.7468 10.0592L57.7447 10.0614ZM70.482 15.282L71.3483 14.7141L71.6386 15.3497L72.5813 15.4349L73.0592 16.1514C74.1175 16.2781 74.1982 16.0029 74.2681 16.9771C73.1857 16.9247 73.0308 16.562 71.9768 16.5315L70.722 16.4943L70.482 15.282ZM58.6721 21.6188C59.7261 21.8329 62.6829 22.0754 63.3332 22.3309C65.295 23.1042 63.7347 23.8403 61.5831 23.0409C59.462 22.2545 54.7136 21.8831 52.4834 21.9662C49.016 22.095 38.8885 22.7263 36.5208 24.926L36.3703 24.6092L27.5237 27.5385C27.8642 25.898 38.978 22.4904 41.2409 22.0382C46.4977 20.9876 53.5265 20.566 58.6743 21.6188H58.6721ZM54.1943 24.1549C59.6759 24.1461 69.0156 24.9915 74.0259 26.9705C76.0269 27.7613 82.916 31.5948 76.0793 29.4214C72.7209 28.3554 70.6304 26.8373 66.8356 26.2934C61.0048 25.4589 51.2025 25.3563 45.3674 26.0946C44.2326 26.2388 41.2583 27.4423 40.6648 27.3113C38.4957 26.8329 43.2463 25.4699 43.5322 25.4C43.7526 25.3454 53.9499 24.1549 54.1921 24.1549H54.1943ZM39.709 27.497L37.828 27.9382L37.3937 28.434L35.9207 28.362L35.3534 29.0369L29.5837 30.9482L29.5728 29.725L29.5466 29.4978L32.7348 29.0304C33.4156 28.279 37.6774 26.3458 39.0849 26.3458L39.7112 27.497H39.709ZM43.6587 28.2768L44.0253 27.7263L45.7667 28.5345L64.7276 28.0452L64.7516 28.6306C64.0533 30.7779 58.8663 28.7639 56.5554 29.0915C53.8408 29.476 49.0749 29.2969 46.6287 29.7206C45.3783 29.9369 43.866 30.7735 42.6484 30.8041C38.9365 30.8936 41.5115 31.0465 39.0042 31.929C37.2257 32.5559 31.971 34.1527 30.2798 34.0588C30.5504 31.9749 42.5175 30.14 45.1208 29.0981L43.6566 28.2768H43.6587ZM19.6221 36.6647C18.2146 37.3637 16.0586 38.5433 14.7166 39.3427C13.3505 40.1553 12.4384 42.4598 10.3937 42.5647L9.80014 42.0907C10.1602 40.116 13.7302 39.3187 13.9157 38.9867C14.7908 37.4096 14.7886 38.4362 16.231 37.4948C17.3876 36.7412 17.824 36.1754 18.4481 35.7364C19.8316 34.7621 22.795 34.0588 23.7791 33.2724C24.8069 32.4511 27.3841 30.0483 28.7327 31.1121C28.8112 32.3244 21.1409 35.9133 19.6221 36.6691V36.6647ZM18.9238 33.5061L17.9702 33.5302L18.0749 33.7682L15.3319 34.6922C14.278 36.9814 13.7651 35.3694 12.4646 36.798C11.3167 38.0583 11.5044 38.6153 9.22405 38.552L9.26769 37.3812L10.9371 36.6931L13.021 34.8102C14.9064 34.3274 16.2463 32.403 18.1055 31.9159C19.3057 31.6014 22.8474 30.1531 23.5849 29.2423L24.9357 29.6879L24.9575 29.8888L23.6177 30.4305L23.3994 31.1601C21.1605 31.3218 19.9974 31.6997 18.9238 33.5061ZM24.5407 28.7595L25.9526 28.3445L26.9913 27.8683L27.7354 28.8403C27.3295 29.085 26.4763 29.3995 25.7998 29.3799C25.0863 29.358 24.8746 29.2029 24.5429 28.7595H24.5407ZM9.47718 39.3231L7.89292 38.434L6.50069 40.3912L6.44832 40.9351L8.88799 40.1881L9.47718 39.3231ZM18.8802 39.251C20.1393 38.6874 21.7825 38.3379 22.7753 37.5472C23.6417 36.8591 28.9094 33.7661 30.0813 33.6743C29.9918 35.5048 25.4791 37.4489 23.7355 38.2724C22.2167 38.9911 21.4486 39.5109 19.9516 40.0832C18.9194 40.4808 17.9025 41.7717 16.7525 42.4533C15.5065 43.1916 11.0702 45.9089 10.2911 46.9399C9.72813 47.687 5.37687 52.4533 4.88589 52.6324C3.88645 50.0767 13.3571 42.9513 15.6484 41.5904C16.3903 41.1514 17.7411 39.7599 18.878 39.2488L18.8802 39.251ZM8.90327 43.469C8.93818 42.8508 8.94036 43.2396 8.75488 42.8486L7.85582 42.8049L6.34358 44.9085L6.24974 45.9242L5.27213 46.04L4.64148 45.9963C4.74841 47.1431 5.78058 46.7783 6.68836 46.431L8.66759 44.0697L8.85308 44.1789L8.90327 43.469ZM43.9882 32.8333C46.3472 31.798 58.8685 31.088 61.6595 31.4222C62.9077 31.573 70.578 33.279 70.5889 33.2768C72.926 32.5537 70.829 32.4074 74.3837 33.5323C74.8136 33.6678 78.0978 35.2492 78.1807 35.4677C77.7966 36.6298 75.5272 35.2427 74.4492 34.7709C71.7433 33.5848 72.6773 32.9688 71.3003 35.0942C69.1574 33.7267 71.5513 34.1986 67.8525 33.7311C65.0746 33.3794 67.3877 32.1846 64.8411 33.9561C64.0751 32.5559 65.4346 32.7766 62.8422 32.7984C61.5002 32.8093 60.1014 32.3834 58.7354 32.3178C57.6726 32.2676 51.7982 32.6717 50.7312 32.8748C47.5714 33.4777 46.6047 33.0802 44.141 34.1199C43.6675 34.3187 37.7145 36.1164 37.4439 36.1186C32.5689 36.1186 16.8987 47.0077 14.4503 47.047C15.9168 44.1942 24.7218 40.5092 27.8271 38.7005C34.4216 34.8604 37.972 35.4786 43.9861 32.8377L43.9882 32.8333ZM36.8918 38.4319C42.5786 36.3655 44.728 35.9089 50.7202 35.2252C52.2521 35.0505 52.6842 34.3231 53.9193 34.3296C55.3443 34.3406 55.7327 34.7621 57.4523 34.6704C60.7081 34.4956 63.2961 35.1007 65.9605 35.2012C67.3637 35.2536 81.3514 37.652 77.8425 39.8233C76.9281 39.5284 77.2009 38.4799 73.7574 37.96C71.811 37.6651 70.4645 36.8569 69.1247 36.7565C67.763 36.6538 64.9917 35.9242 64.5552 36.0837C62.061 36.9989 63.475 35.5966 60.6622 35.4917C59.1456 35.4349 52.1583 35.4611 51.2483 35.863C49.4437 36.6582 48.2478 36.1885 46.393 36.4747C43.3816 36.9399 45.4067 37.7263 45.0902 39.452L40.3877 40.6686L40.1716 39.9587L44.5447 38.8272L43.6391 37.4707L43.4994 37.2589L34.9628 40.3563L24.772 44.6922C25.6318 42.521 34.354 39.3537 36.894 38.4319H36.8918ZM18.04 48.9233C20.5408 46.846 24.2832 47.1933 24.3574 44.4913C21.2282 44.5262 13.3789 51.3349 11.4324 53.4646C6.82147 58.5061 6.0839 60.6861 3.26235 66.7892C5.24376 66.8045 5.96824 62.2916 7.64415 60.3126C9.32224 58.3314 10.9349 56.0269 12.1678 53.9714C12.6522 53.1654 16.9729 49.8102 18.0422 48.9212L18.04 48.9233ZM48.669 38.9517C48.7541 39.0653 62.2508 38.7966 64.0577 39.0326C65.9365 39.2772 70.0063 40.5004 71.2916 40.4917C72.6576 40.483 76.4612 42.5232 77.6024 42.1649C78.2724 40.5835 66.0871 38.2658 64.4243 37.9513C62.8662 37.6564 50.118 38.1304 48.8829 38.5717L48.6668 38.9539L48.669 38.9517ZM60.6884 40.0636C59.7654 40.0374 59.3377 39.8713 59.0016 40.5332C59.4118 40.8718 64.0861 41.5839 65.679 42.272C67.5535 43.078 70.2223 43.5629 72.5267 43.6306L72.4831 42.6084L71.0581 42.7787L68.5246 41.7499C67.667 42.0251 62.4603 40.116 60.6884 40.0636ZM40.1105 42.4904C41.566 42.4445 49.963 41.9814 50.19 41.2715L50.1791 41.0728L41.0118 41.4113L40.0145 40.8652C39.0325 41.4594 39.2355 42.0819 37.8192 42.2392C36.9638 42.3353 35.5934 42.4096 34.8253 42.6717C33.5182 44.0522 32.7064 43.9474 30.7665 44.4126C29.6841 44.6726 27.3012 45.9286 28.5581 46.9967L28.7436 47.1693L30.9083 45.0985C35.085 45.0046 35.8967 42.6258 40.1105 42.4926V42.4904ZM71.7695 31.3611L73.524 31.6887L73.8556 32.1234L74.9271 32.1475L74.8944 31.2453C74.2419 30.6381 73.0264 30.199 72.0423 30.1684C70.087 30.1116 68.9239 30.6075 67.4161 29.0937L65.2055 29.1025L66.0675 30.6184L71.7717 31.3611H71.7695ZM81.1397 35.1553C79.4747 35.1859 79.6428 35.6621 79.6078 37.0208L80.077 37.3593L81.0088 37.4664L82.6323 38.3969L83.0099 37.3047L81.1419 35.1575L81.1397 35.1553ZM82.2134 41.4528C81.9581 40.5092 80.5418 40.2689 79.4595 40.2558L79.8064 41.2693C80.4654 41.4878 80.6597 41.597 81.3732 41.6167C82.0344 41.6363 81.6831 41.6625 82.2156 41.4506L82.2134 41.4528ZM83.0295 42.0448L83.0229 43.1326L84.0442 43.5695L84.8931 43.4603C84.6923 42.7307 83.9526 42.0885 83.0295 42.0448ZM81.1376 44.6158L80.1032 43.3052L80.5091 42.3484L80.232 42.1212L79.298 42.687L78.6433 43.0321C78.5037 44.4323 81.2205 45.7779 82.5189 45.815L82.1937 44.6769L81.1354 44.6136L81.1376 44.6158ZM77.9407 45.8478C77.8141 43.7399 76.1949 45.3104 74.7831 43.5542L72.7755 43.5782L72.9413 44.358L75.1191 45.0046L77.3777 45.7276C78.1218 47.794 78.7917 47.7132 80.6487 48.528C80.9586 49.4607 82.2657 51.1536 83.287 49.8146C82.6913 48.1523 81.9231 48.659 80.6858 47.7569C80.472 47.5996 77.9429 45.8478 77.9429 45.8478H77.9407ZM70.1569 48.2418C68.7734 48.268 58.7135 42.9164 57.8189 45.2689C58 45.3781 63.379 46.5599 64.121 46.7455C66.1635 47.2567 68.7712 49.1942 70.0172 49.6638C72.5027 50.6031 80.2254 55.9526 80.9979 56.0007L81.3841 55.531L71.0516 48.5498C72.7166 44.9194 79.7191 53.1195 82.1173 53.1916C82.0693 52.7678 78.615 49.8451 77.7268 48.9911C76.9783 48.2702 72.7471 46.2191 71.8088 46.0946C71.189 46.0116 57.4588 40.7866 60.4178 42.9775C61.9279 44.0959 65.2557 44.2641 67.0734 45.3388C68.7101 46.3065 69.0527 45.8521 70.0499 46.3458C70.9053 46.7696 71.8153 48.2091 70.1569 48.2418ZM67.0713 49.9893L69.7553 51.87L69.5502 52.1562L65.9387 50.9046L65.5285 49.9544L62.6 49.1614L61.9584 48.6219L59.6497 48.5302L58.9732 47.4314L62.181 47.8661L62.1308 48.0627L63.5732 48.1086L63.4816 48.303L65.5656 49.2357L65.858 49.8823L67.0691 49.9893H67.0713ZM66.4559 52.711C68.8345 53.7595 67.6866 52.9535 69.8928 54.583C70.1743 54.7905 73.1901 56.3676 73.4301 56.5424L75.2239 58.5564L75.0427 58.7202L73.0592 57.9819C71.9746 56.1012 68.1798 54.8277 66.2857 53.6001C64.9546 52.7372 63.702 52.5232 62.6917 51.4921C61.6704 50.4502 59.2809 51.9334 58.9798 49.4847C59.9268 49.535 61.6224 50.5725 63.0102 50.8478C65.2295 51.2868 64.8651 52.0098 66.4559 52.711ZM56.7605 47.4096L57.5657 47.5494L57.3628 46.6254L55.5123 45.9111L53.5527 46.5336L56.7605 47.4118V47.4096ZM49.9478 44.4301C50.3624 44.5 56.204 44.7337 56.2193 44.7294L56.4594 43.7355L54.1244 43.9452L53.2363 43.635C52.3307 43.8993 47.2375 43.445 45.003 43.6809C43.5758 43.8316 42.5 44.1396 40.8917 44.2095C38.6179 44.3078 39.5868 44.8124 37.3108 45.2449C36.1782 45.4589 30.9825 47.1671 30.3933 47.746C29.0207 49.0915 25.9897 50.7123 25.2477 51.7455L25.9766 52.5363C26.4327 52.344 28.8876 50.2099 29.9067 49.6092C30.162 49.4585 31.971 48.3773 32.019 48.3336C33.5313 46.9334 32.7675 47.912 34.1532 47.272C36.9682 45.9679 36.0211 46.3829 39.1024 45.6053C42.0832 44.8517 41.7428 45.0155 44.584 45.2187C45.7623 43.9517 48.1169 44.1309 49.9478 44.4367V44.4301ZM50.0089 48.2746L52.7278 48.3554C54.0372 48.3947 55.1239 48.4777 56.06 49.0216C55.5188 50.4196 53.1752 49.1265 51.4535 49.0762L50.3973 48.9648L48.3024 49.1855C42.9452 49.2051 42.3691 50.5813 38.2622 51.787L37.7123 52.6389L36.3921 52.58L36.9987 51.3261L38.0789 51.171L42.6658 48.7661L45.1732 49.1177L46.0548 48.5345C47.1546 48.8469 48.2697 48.2265 50.0089 48.2768V48.2746ZM47.5583 45.9286C47.663 47.4096 52.3394 47.0579 52.5402 46.1077L47.5583 45.9286ZM45.2626 46.9006L47.1022 46.4266L45.8824 45.8303C45.0226 46.7259 44.1366 46.4004 42.7313 46.3589L41.1449 47.1191C41.8497 47.5363 41.5224 47.4598 42.284 47.4817L42.7029 47.4948C43.9795 47.5319 44.2501 47.0251 45.2626 46.905V46.9006ZM38.3648 47.9928L38.2077 47.13C37.3479 47.1649 33.7539 48.5979 33.612 49.8517C31.2705 50.1138 28.9094 53.2309 27.862 54.6311L27.0437 54.2248L26.1119 54.4978L25.0513 56.6145L27.1244 56.206C28.4032 54.7228 27.2226 55.2995 29.4528 54.2095C30.1729 53.8556 31.3622 52.7591 31.5979 51.9945L33.2694 51.4572C34.5002 48.1413 36.894 49.0653 38.367 47.9906L38.3648 47.9928ZM38.5066 49.0784L38.3015 49.6988C36.5558 50.2252 36.2241 50.3606 34.7947 51.5664L33.8019 51.5861C34.2143 50.3323 36.9595 49.0566 38.5066 49.0784ZM35.5367 52.8399C33.612 52.6171 28.3028 57.403 26.9367 58.7901C25.047 60.7123 21.4355 64.9019 21.4551 67.5122C22.8081 67.5254 22.8081 67.178 23.011 66.0924L23.6329 65.7298L23.3754 65.5507L25.1081 63.2549L25.1365 62.888L25.1561 62.13L26.2581 61.8504L27.2401 62.0513C26.6072 59.0413 32.6977 54.8167 35.4581 53.8797L35.5389 52.8421L35.5367 52.8399ZM12.4275 63.919C16.2354 58.9583 19.5763 55.0199 24.0759 50.6228C28.8505 45.957 21.0449 51.704 20.4535 52.3943C18.6401 54.5131 16.7394 56.6057 14.7689 58.7879C12.9206 60.8368 5.30923 71.2213 4.76805 73.2724L5.21539 73.4996L8.23334 68.8272C8.54975 69.4935 7.18153 72.5647 6.88694 73.0365C5.86132 74.6813 7.39102 75.9461 8.30535 72.1977C8.99273 69.3842 10.6272 66.2606 12.4253 63.9168L12.4275 63.919ZM18.998 51.3873C20.22 50.9592 23.0896 49.2029 23.2161 48.244L23.0721 48.0256L20.1633 49.5874L19.7727 50.5638C17.9266 50.7364 14.4962 53.6459 14.4438 55.5638C16.0979 55.448 17.0013 53.2702 17.9156 52.2916L18.8911 52.272L19.0002 51.3895L18.998 51.3873ZM9.09311 51.9967C10.3195 52.012 13.5295 48.6831 14.4809 47.6149L13.691 47.0426C12.6479 47.9535 12.015 47.9972 11.8536 49.4039C10.7014 49.4498 9.14985 50.8194 9.09311 51.9989V51.9967ZM7.18371 55.0199C8.05222 54.2313 9.21095 53.9823 8.75924 52.4052C6.69709 52.3506 6.33703 54.8473 5.81331 55.4546C4.43418 57.0557 4.54328 57.5341 2.90011 58.6809L2.78882 59.7185C1.96614 60.2755 1.36822 59.9391 1.665 60.9373C2.61643 61.2235 4.33598 59.168 4.76587 58.3292C5.73039 56.4375 6.74728 57.995 7.1859 55.0199H7.18371ZM12.9163 57.0011L13.021 55.9177L14.2714 55.5485L14.5835 55.8259L5.7042 68.469L5.60164 66.4987L7.56341 65.033L7.3081 63.7093L8.18315 62.9579L8.33808 61.9268L10.3544 59.9915L10.5159 58.9823L12.9163 56.9967V57.0011ZM9.41608 81.3108L8.65886 80.9024L8.00639 81.8635L9.03638 82.344L9.41608 81.3108ZM27.048 101.957C28.3508 101.888 31.8226 101.857 31.8248 103.423L31.1963 103.403L27.1637 102.781L27.048 101.957ZM25.3307 52.8093C23.0656 52.178 16.602 61.2038 15.5371 63.0103C14.4329 64.8801 7.01569 73.2724 9.40517 74.9587L11.9081 70.0723L12.6064 70.3475L9.24805 78.137L9.08657 75.448C7.64633 75.7975 5.71948 89.784 7.68125 90.0243L8.27916 82.8049L8.72869 82.8377C10.8127 84.4126 7.19681 90.1575 10.182 90.4764L9.98344 88.5826L10.0773 86.4965L10.0926 82.7219L10.5988 82.7285C10.7297 82.7809 11.3408 95.5725 15.6964 98.8993C19.6003 101.881 25.311 105.245 30.186 106.49C31.8575 106.916 32.2023 107.722 34.4631 108.233C35.9186 108.561 37.193 108.683 38.6616 109C40.9419 109.491 45.6336 110 48.3177 110.413C52.1452 111.005 63.9202 116.285 65.8645 114.649C62.3294 112.842 61.2514 113.419 58.5062 111.872C56.0753 110.507 53.1752 110.19 50.4016 109.548C47.0171 108.764 35.037 107.379 33.5247 106.78C30.7665 105.693 28.2504 105.219 25.7693 103.978C24.2287 103.207 21.5184 101.184 19.6352 100.341C16.938 99.133 10.3784 90.5463 12.757 88.2746C13.7062 88.386 14.6271 91.9137 15.2992 93.3183C16.2048 95.2143 16.9293 96.4288 18.6838 97.6411C20.4579 98.8644 19.7945 98.2593 21.3809 99.0347C22.8692 99.7621 22.3956 100.356 23.1681 101.02C23.8621 101.617 26.6291 103.178 27.8358 104.059L51.4142 108.006C49.6052 104.699 37.6556 104.347 33.9022 104.238V103.609L38.1138 103.646L38.0942 103.296L26.8167 100.671L26.7054 100.457L26.8909 101.529L26.6421 101.562C25.85 101.455 17.7389 95.6031 17.2283 94.6267C16.7504 93.7158 14.9719 90.0745 14.6773 89.2204C14.0772 87.4773 13.979 83.8447 13.0952 83.1719L12.7984 83.1981L13.3309 87.6717L12.2442 87.7525L11.7466 81.6603L12.3664 81.6057L13.4291 82.9338L13.3353 82.7372L14.2016 73.8098L13.4553 73.7289L11.3211 82.5057L10.6228 82.3615C9.53828 80.7779 11.6223 75.4305 12.3467 73.5367C12.805 72.3375 13.9179 69.9238 13.5164 69.2903C12.8203 68.1872 13.7411 68.0518 14.5704 65.7713C15.1879 64.0762 25.4943 53.2462 25.3285 52.8071L25.3307 52.8093ZM9.24805 78.137L9.79796 78.777L9.85033 79.4803L9.80887 80.2056L8.71778 80.3781L8.33372 78.5018L9.24587 78.1392L9.24805 78.137ZM19.3493 64.4367C18.4612 66.0356 17.9113 66.6734 16.9402 68.6437C16.5365 69.4651 15.6986 70.7014 16.8136 70.5813C17.6996 70.4873 17.4792 69.2139 18.902 69.1396L16.4536 80.234L16.1175 80.1772C16.8158 81.5839 16.2332 83.4821 16.2703 85.0199C16.327 87.3637 16.9598 87.652 17.5883 89.5022C18.1317 91.1011 21.9985 96.2912 23.6351 96.3611C23.8512 96.289 24.8026 94.4716 26.2559 94.4214C28.5232 94.3427 26.4436 95.3585 26.3192 96.7936C22.4567 96.8766 26.6531 98.5258 23.8162 98.1654C22.3564 97.9797 23.9952 98.2986 22.6073 97.3025C21.3809 96.4222 22.7273 97.6193 21.2478 97.1059L21.442 97.0186L19.6439 93.6831L18.4546 94.3143C17.1213 89.5197 15.6593 89.4607 15.2948 83.3314C15.1421 80.7691 16.9468 71.9574 16.1546 71.064L14.8693 73.3183C11.679 71.6014 23.0088 57.3222 24.4753 57.486C26.1752 57.6804 19.5632 64.05 19.3493 64.4345V64.4367ZM21.5184 73.7945L22.0945 73.7879C22.0683 74.5066 22.2145 74.3842 21.49 74.4869L21.5162 73.7945H21.5184ZM45.1513 88.6874C46.2752 88.0649 48.5403 87.5887 48.8545 86.0596L50.6635 85.7953L50.8599 86.1033L48.1169 89.1221C48.7367 91.289 47.9423 90.3628 47.8005 92.5341L48.1955 93.3095L47.9794 93.8556L47.1437 93.8316C45.6707 93.279 46.7989 91.0968 46.8294 89.8451L46.633 89.6267L44.9178 91.1143L44.8458 92.0055L40.1193 93.3794L40.1934 93.6132L38.8296 93.6372L37.6076 94.6617L36.4619 93.7115C37.1078 92.8814 41.4416 91.4878 42.4694 91.2781L45.6271 89.3449L45.147 88.6896L45.1513 88.6874ZM28.3901 96.7477L29.551 96.5511L29.1211 97.3266L28.3901 96.7455V96.7477ZM30.7534 96.3829L31.1636 96.396L31.2902 97.0732L31.7506 98.3052C30.9127 98.2134 30.7184 97.7088 30.7403 96.9487L30.7555 96.3807L30.7534 96.3829ZM27.9951 91.5249C30.9978 91.881 34.4805 92.3659 36.9551 90.6337L38.4913 90.9417L37.9458 92.4555L37.2868 91.8831L35.2334 92.7853L33.7822 92.4598L33.1625 92.7656H28.9029L28.1697 92.1344L26.7731 92.1081L26.1686 90.2274L27.9951 91.5249ZM41.4133 52.2676C35.9775 54.1112 33.1625 57.4817 29.383 60.9308C27.5565 62.5974 26.3192 64.701 24.8637 66.6887C23.3863 68.7049 22.8168 72.1562 22.2276 73.0518L20.0651 73.5979L22.2145 68.0256L21.8785 67.9098C20.1371 68.244 17.5294 75.8456 19.1137 77.2916L19.321 77.3309L19.7574 75.3781L19.9996 75.424C20.6652 75.6883 19.9996 81.7652 20.2222 83.1741C20.3859 84.2008 20.567 85.9745 21.1256 86.6603C21.8152 87.5101 23.214 88.6437 22.3302 89.6813L21.8086 90.0636L18.9565 86.8984L18.7667 87.1365L19.3188 81.0902L19.273 79.1898C19.3079 77.8202 20.172 77.5144 18.0618 77.4489L18.435 89.9609L19.046 89.9434C20.7568 91.1405 22.5571 92.8574 23.9363 93.9452C24.6695 94.524 26.0355 94.2291 24.1981 92.5821C23.5369 91.9902 22.1862 91.123 22.2451 90.3781C23.8271 89.9959 25.6776 92.1103 27.3099 93.0365C29.1669 94.0915 31.4255 94.5022 33.5247 94.5743L34.8122 93.2899C35.6654 94.2226 36.4597 95.6009 34.127 95.531L33.0817 95.5005L27.8773 95.5179L27.9907 95.7735L27.9275 97.6215C32.9028 98.7049 35.8706 99.3362 41.1449 99.5197C43.8093 99.6136 51.7851 101.584 53.5331 103.172C55.6651 105.109 61.4478 107.123 64.4658 108.438C66.6327 109.382 68.3718 109.434 70.1154 110.256C71.3243 110.826 74.087 113.432 75.13 112.455L75.2893 112.259L69.3866 108.117C68.0816 109.642 63.6562 106.317 62.1985 105.568C59.9574 104.417 59.8635 104.891 57.6268 104.483C56.0404 104.192 56.6427 104.078 56.0164 103.255C54.9929 101.907 55.5494 103.119 54.2619 102.504C53.6553 102.213 53.317 101.005 51.2287 100.149C50.046 99.6638 47.9773 99.1898 46.6941 98.9779C43.3249 98.4231 41.4504 97.3834 37.6185 98.6088L37.673 98.3816L32.1456 97.2326L32.2001 96.7936L35.1657 96.8897C37.2999 93.8272 41.302 95.0461 44.8546 93.5717L45.075 93.3489L52.2281 99.2663L64.2148 104.583L63.8678 105.016L64.2672 104.777L69.3909 107.927L69.4302 106.414L69.1923 106.682L64.6774 103.401L64.3174 102.905L62.7768 103.261L63.2132 102.787L57.2973 99.4432L52.5729 97.7547L52.4791 97.9622C51.3465 95.9723 49.0312 95.9417 48.9003 93.244C48.8501 92.2042 49.1054 90.9788 49.7361 90.0745C51.5146 87.5319 50.5435 89.5503 50.0263 87.8486L50.1747 88.0299L52.4769 86.5184L52.263 86.0968L50.502 84.95L50.7399 84.6507C55.0213 83.0103 58.5062 85.306 61.1008 88.3729C62.1243 89.5808 67.1018 96.182 68.302 95.8084C68.4046 95.3279 66.5934 93.5542 66.122 92.5909C64.577 89.4345 64.7429 91.5489 63.331 89.7905C61.4674 87.4686 63.8111 87.1169 61.941 86.5642C58.515 85.5507 62.0217 86.2257 59.2678 84.0195C55.3094 83.2593 52.9286 81.7302 48.9265 84.6638C46.105 86.7302 43.9948 88.2047 41.1972 90.1378L41.1863 89.8735L35.5476 90.0155L35.5345 89.6966C36.1433 88.9867 39.7657 89.4956 43.2616 86.8089C44.632 85.7538 48.6886 82.5887 50.5479 82.3113C50.5348 79.6704 50.2642 82.2654 52.0208 81.8067C53.0072 81.5489 53.5789 80.6621 55.1391 81.6167C57.0049 82.7591 59.2351 82.4795 61.4173 82.9229L61.0747 83.1326L65.0375 88.4078L65.7903 87.9731L61.2994 81.1754L59.8221 82.2851C58.9056 82.1453 57.0267 79.9172 53.9542 79.7097C53.0268 79.6464 49.3258 80.8587 48.2609 81.6997C45.3368 84.0063 41.2125 87.3025 37.4723 87.2851L37.5836 87.7591L32.3398 88.7224L32.3616 89.2466L35.1374 89.9019C32.7588 92.2676 27.9689 90.3825 26.3868 89.1243L24.4469 89.5677C22.6575 86.9443 21.8763 86.1361 21.2958 83.1959C21.0667 82.0426 20.8354 75.4153 21.5184 74.926L23.8882 87.7372L24.532 87.6455C25.8958 88.5192 31.9186 90.7888 32.2241 88.4515L27.0699 87.7766L26.7884 88.0277L22.9521 81.8984L23.4562 81.6429C25.071 80.5747 24.1632 84.4236 27.5739 85.9679C29.2062 86.7062 33.9524 87.8312 35.4952 86.964L34.4347 85.7342L35.4756 84.0216C32.9726 84.5087 31.0981 85.7604 28.1871 84.5175C26.9804 84.002 26.437 83.6263 25.8129 82.4707C24.1872 79.4629 25.0339 81.9858 23.7988 80.4852C22.1381 78.4712 24.4512 70.614 25.047 68.0299L27.8947 65.1095L28.1457 65.2929C27.2641 63.161 33.5422 58.4843 35.2792 56.6735C37.158 54.7163 43.9533 52.1562 47.0258 51.8132C51.1894 51.348 57.6115 52.1496 61.2841 54.1745C63.3179 55.2951 71.2327 59.1833 72.961 59.3624C70.8399 56.7368 62.2639 53.4209 58.8183 52.4074C52.0885 50.424 48.2806 49.9391 41.4155 52.2676H41.4133ZM64.2126 104.59L64.5072 104.22L64.241 104.603L64.2126 104.59ZM38.0265 56.3392C38.0265 54.6092 47.4928 53.1916 49.0683 53.1807C53.4021 53.1523 57.1075 54.4629 60.8892 56.3611C62.9077 57.3724 67.955 62.7875 69.4411 61.2737L64.8629 57.8465L65.0506 57.6149C67.7718 57.9251 77.5937 64.5284 77.4475 67.1933L70.4296 61.1143L69.9714 61.5468C70.2987 64.1199 76.7274 67.8836 76.3084 68.9364C76.0247 69.6507 69.5306 63.801 68.7821 63.1173C66.7789 61.289 65.5918 61.597 64.1602 60.4109C62.3709 58.9299 62.7768 58.5061 60.2149 57.1234C57.0638 55.4218 52.143 53.8534 48.4726 53.9299C46.4628 53.9714 38.0287 57.0186 38.0287 56.3414L38.0265 56.3392ZM53.7731 56.3676C58.7572 57.6346 61.2361 59.5262 64.6949 63.0955C61.4784 62.5821 58.4386 57.77 54.1986 57.4555C48.9767 57.0688 47.2026 55.5704 41.4591 57.936C38.6507 59.0937 33.516 61.431 32.0081 64.0784C30.7032 66.3676 29.7736 66.656 28.6607 68.3882C27.4343 70.2951 28.5494 73.4537 25.5074 72.7438L25.5314 71.798C25.682 71.3371 28.9531 70.2755 26.9651 70.4196C25.7365 70.5092 25.095 71.2846 26.6967 69.2685C27.0589 68.8119 30.3409 64.5721 30.3824 64.4629C31.192 62.2785 32.4947 62.237 34.6224 60.5136C38.5503 57.3353 36.2895 59.2969 40.2393 57.3506C44.405 55.2973 49.2953 55.2296 53.7753 56.3676H53.7731ZM51.8222 42.2807C52.7235 42.2108 53.2799 41.9793 53.544 41.1776C52.1452 41.1361 52.0034 40.5922 50.8184 41.2868L51.8222 42.2807ZM54.5892 41.2104L54.5696 41.9683L55.8222 42.189L57.4915 42.0033C57.258 41.4091 56.1059 41.2562 55.2155 41.23L54.5892 41.2125V41.2104ZM70.2158 52.0863C72.3587 51.2977 79.119 58.2418 80.6509 58.4865L81.1092 59.7927C78.9401 59.6944 79.1998 58.5214 78.4077 57.6171L77.2271 57.7285C75.717 55.8063 70.7024 53.0081 70.218 52.0863H70.2158ZM77.1791 59.2728L75.5621 59.192L79.2762 62.1191L79.7672 61.3305L78.8572 60.7648L78.7874 59.9478L77.7596 59.8823L77.1813 59.2772L77.1791 59.2728ZM76.9587 62.047C77.3515 63.4231 79.2085 63.1151 78.8114 64.9762L78.3989 65.1422C77.9276 64.9085 77.0787 63.5236 76.675 63.0278C75.6385 61.7586 75.4072 63.3576 74.663 61.0487C73.9102 60.6818 73.2185 60.3388 73.4236 59.4432C74.7678 59.2838 75.2326 61.5489 76.9587 62.0448V62.047ZM81.6045 60.791L83.3656 61.0269L83.3939 61.9115C84.5112 62.13 84.3366 62.6324 85.0087 63.4908C84.8822 64.2947 84.9956 64.2357 84.1533 64.2095L84.1293 63.3095L83.3939 62.8552L83.1102 61.9552L82.0432 61.8984L81.6024 60.7953L81.6045 60.791ZM82.6629 57.7853C82.6345 58.4559 83.6492 59.3799 84.4479 58.8775L83.479 57.7634L82.6629 57.7853ZM82.46 53.7136L83.1779 53.5826C83.9853 54.192 85.9361 56.8198 83.7256 56.8132C83.6601 55.0811 81.9711 54.4935 82.46 53.7136ZM82.0322 63.8447L81.3012 63.3183L80.9739 62.7416L80.4022 62.8028C80.4131 63.6809 81.1376 64.5 82.0257 64.7447L82.0301 63.8469L82.0322 63.8447ZM81.526 67.9491C80.3825 67.8224 80.0508 66.8591 79.3634 66.1208L79.5424 65.2449C80.5942 65.5398 81.5303 66.8897 81.5282 67.9491H81.526ZM79.9766 71.123C80.5266 70.1116 79.3198 68.5258 78.6193 67.6586C76.7819 68.0518 79.3613 70.9526 79.9766 71.123ZM80.8757 71.4878L79.8981 71.5249L80.424 72.8006L81.0481 72.9447L81.9013 75.3803L81.6809 76.2497L82.6323 76.3917C83.0055 77.4686 82.5145 77.6105 83.7823 77.6761L82.6542 73.8949L82.209 72.6761L81.3361 72.4008L80.8779 71.4878H80.8757ZM79.3024 75.2077L80.0988 75.6555L79.8719 76.6647L80.8451 76.8548L81.5762 79.0304L82.6454 80.6577C82.5669 81.4528 82.4556 81.9312 81.4714 81.6538L81.155 79.9325L80.2298 79.4148C80.3018 78.9889 80.4545 78.9801 80.4371 78.5192L80.3018 77.6608L79.25 77.4227L79.2085 76.4048L78.7961 76.3939L78.735 77.1103L77.0503 77.3113L75.6297 75.0133L75.8851 74.7709L77.1485 75.234L78.0716 75.0854L77.2075 71.6647C78.556 71.7586 78.6782 72.7241 78.7372 73.7049L79.298 75.2077H79.3024ZM76.3913 73.5149L75.872 74.5874L74.5496 74.5175L75.0864 73.6437L73.9844 72.4948L72.0903 69.915L67.6059 65.7953L65.978 64.1898L66.0675 63.4471C66.96 63.2112 68.8847 65.7189 69.057 66.4026C70.5453 66.6167 70.3773 66.6451 70.781 67.8901C71.8219 68.6743 73.489 69.1374 73.9298 70.3781C74.3401 71.5337 75.669 72.438 76.3935 73.5171L76.3913 73.5149ZM66.9403 67.8268L66.0195 67.888C65.1837 66.8657 62.9535 65.6424 63.0146 64.2073C64.8433 64.1877 64.4156 64.7163 65.3779 65.6621C65.9627 66.2344 67.3964 66.7171 66.9425 67.8268H66.9403ZM71.1017 72.4227C71.3811 72.6499 72.3652 73.0605 72.7777 73.2702L72.6118 74.0631C74.3881 75.8456 74.5168 77.2195 76.1709 79.0042C77.7115 80.6643 79.0514 82.3593 78.9925 84.7337L78.8179 84.8845L77.406 83.5018C77.214 81.7084 77.1398 81.49 75.6516 80.3759C74.4361 79.4651 75.5206 77.8814 73.5785 77.3266L73.3123 75.7167C71.9484 75.3541 70.0543 72.6935 69.9277 71.2104C71.2087 71.3786 70.0565 71.5817 71.1039 72.4249L71.1017 72.4227ZM69.7226 71.0203L68.7494 70.9242L67.2786 69.3624L67.2742 68.2899C68.2518 68.3969 69.6811 70.4174 69.7248 71.0203H69.7226ZM69.8186 75.3716C68.8301 75.2689 64.4068 70.0614 63.3943 69.0238C61.0747 66.6538 58.8903 64.9238 55.5079 63.7377C52.0666 62.5319 48.6254 62.9229 45.2648 64.2925C40.7674 66.1252 40.5797 69.7272 37.5465 68.7399C38.4128 72.4052 33.2781 72.0142 33.1996 74.8626L33.3545 75.0745L39.7701 71.2759L40.4073 72.2042L30.6464 77.0841L30.0529 76.6735L38.2884 66.5074L38.9474 66.9159L38.3473 68.3685L39.146 68.6721L40.2873 66.1798L39.7155 65.9613C47.4099 62.1868 49.0269 60.4764 57.6181 63.7879C62.8509 65.8041 61.0179 65.4502 64.5465 68.7792C65.8187 69.9806 69.404 73.943 69.8208 75.3694L69.8186 75.3716ZM61.7795 70.59L61.7009 70.9046L63.0626 71.1994L63.0146 71.3851C62.2137 73.5214 60.2171 70.4917 59.2176 69.452C58.1571 68.3532 55.82 67.5734 54.3427 66.5904C51.3378 64.5874 44.9484 66.0793 43.0412 68.9583C43.6478 69.2881 47.0018 67.4271 48.4682 67.1606C52.3918 66.4506 51.8855 67.7198 54.2139 68.7377C57.1184 70.0046 56.8718 69.6398 59.019 71.8438C59.5231 72.3615 60.3829 72.6936 61.1489 73.5542C62.9688 75.6009 62.4058 74.2881 63.3681 73.8578L63.5754 73.7726L73.1552 92.6564L75.3613 96.9225L74.9031 97.1147C72.291 96.1776 69.4913 87.4576 68.1951 84.7184C65.6289 79.299 65.0506 77.7547 60.0599 73.9124C56.4681 71.147 51.951 66.6516 46.86 68.7355C45.2692 69.3864 39.5148 71.6669 41.2802 68.6678C43.2899 65.2536 44.8393 67.2501 46.8578 64.4782C48.6406 65.6293 52.4834 63.2222 56.2521 66.0662C57.6377 67.1125 58.8139 67.4948 59.8483 68.5411C61.4456 70.1553 63.4009 70.1597 63.451 70.6403L61.7773 70.59H61.7795ZM64.2541 71.9902C65.9955 72.1824 65.5285 74.1636 67.2611 74.9697L67.0254 75.1575L68.7559 76.6516C68.6643 78.161 69.0723 78.7289 70.2703 79.7796L70.6348 81.3589L71.584 82.8596L70.6762 83.3226L68.8083 80.033L69.0352 79.9281C67.6801 78.7704 67.9354 77.403 66.4472 76.2213C65.8362 75.7364 64.2497 72.8071 64.2563 71.9902H64.2541ZM54.2314 61.9006L55.1937 60.9832L55.2723 60.7866L57.3366 61.7171L57.2428 61.8897C58.8969 62.1125 60.0032 63.3161 60.9612 62.7809L60.0578 62.2567L59.8897 61.4659C58.6197 61.372 57.0922 60.7997 56.3612 59.867L55.2024 59.7731L53.2865 58.4428L51.8179 58.3751L51.2614 57.936L50.1201 58.0758C49.3477 59.5044 52.9526 59.0282 54.2772 60.0133L53.448 61.0662L54.2357 61.9006H54.2314ZM39.4013 65.2471C36.8787 65.9679 35.1548 68.078 33.5836 69.8036C32.6235 70.8587 32.558 71.6363 31.2662 72.6302C28.9989 74.3711 30.4522 75.0614 29.5313 76.0138C26.0922 76.0378 30.9061 68.4472 31.5149 67.4358C33.2541 64.535 36.1128 62.7329 38.9147 60.9373C41.4526 59.31 43.9708 59.666 40.8699 61.0312C39.3271 61.7106 38.1051 63.019 36.7347 63.8949C34.4347 65.365 30.6333 68.9059 30.557 71.7565C30.8232 71.7433 37.7363 64.5481 38.954 63.6896C40.8328 62.3615 49.9216 57.6171 51.1392 60.6162C50.8839 60.9373 40.464 61.3349 39.3991 65.2449L39.4013 65.2471ZM42.8011 59.8058C42.9364 58.7267 44.117 58.445 45.1601 58.3773C46.8272 58.268 46.9778 57.8443 48.5032 57.8901L48.4792 58.836L47.8529 58.8185C47.1764 58.7988 47.1677 58.7355 46.5698 58.5607L45.9064 59.0915L44.9659 59.1374L45.0248 59.3209L42.8011 59.808V59.8058ZM45.3892 71.3807L45.8889 71.9312L45.0051 71.9378L45.3892 71.3807ZM52.2565 71.04C54.6111 71.3567 55.2308 72.9688 57.605 73.6066L57.3344 73.9845L60.7757 76.0225L60.5793 75.9242L67.3986 86.0728L67.0211 86.2781C65.8907 86.2715 60.3065 77.1737 58.216 75.8609C57.2689 75.2645 53.2057 72.2414 52.3743 71.9705C50.5544 71.3742 45.2495 71.9989 44.7498 73.9452L52.4245 72.6127L52.5467 73.0671L42.3516 77.0295C40.8045 79.9631 45.8344 76.5031 46.2424 76.2868C46.7967 75.9941 51.0781 74.832 51.7328 74.7621C54.0175 74.5197 55.3465 76.2803 56.5205 77.3091C58.4211 78.9736 59.8417 77.3724 60.252 80.9635L54.0175 77.2873L53.6007 77.6433L39.853 84.5328C41.5682 79.2641 53.8735 76.8679 54.0961 76.4222C51.364 72.8202 39.6086 82.9579 37.4177 81.6188L37.217 81.2977L42.0221 78.8665L41.6904 78.3357C40.3593 78.3161 40.0232 79.0369 39.1285 79.5721C38.2011 80.1269 37.7712 79.8233 36.2044 80.4568C33.8891 81.3938 33.6513 81.8613 31.611 80.6577C27.7289 81.1492 27.5718 77.1977 25.8129 77.1125C25.7256 80.4633 29.6383 81.1099 30.6617 83.1435L30.5482 82.7066L35.4647 81.7062L35.5258 81.9421L35.5061 82.7001C33.5967 82.6433 30.9694 85.3694 29.6535 83.0802L29.2804 83.4624L25.0994 80.1051L24.6455 80.2492L25.0666 73.6831C29.0251 73.7988 26.9695 74.4345 27.1484 76.1579L27.0699 76.4375L29.2149 76.8416L29.4812 78.7901C31.6764 82.0295 38.7227 78.1195 41.1056 76.8067L44.7564 74.5262L44.4705 74.0719L42.0985 74.4607L44.5163 72.3025L44.3679 72.1671C43.458 72.1562 42.2971 72.9447 41.7537 73.3773C40.3047 74.5328 41.0707 74.2423 41.5595 75.4917L41.4307 75.9592L38.295 75.2274L38.5437 74.7381L40.5404 72.9557L40.2174 72.5647L50.4868 68.5804V68.8644L51.9379 70.1094L46.6658 70.3956L46.705 70.9089C47.0258 71.3414 51.2767 70.9089 52.263 71.0422L52.2565 71.04ZM37.9567 76.3349L39.4842 76.4375L38.9387 77.2676L35.5891 77.5516L34.7947 78.5433L30.9869 78.386L30.6181 77.6346L30.773 77.5079L32.4838 77.628L37.6621 75.7233L37.9589 76.3371L37.9567 76.3349ZM39.0674 82.6149L39.6959 82.6346C39.5846 83.528 39.6566 83.22 38.7925 83.5083L38.1924 84.1068C37.6425 84.3165 38.044 84.2925 37.3523 84.2707C36.235 84.2379 37.2802 84.2248 36.3157 83.8622L36.3768 83.3641L39.0696 82.6171L39.0674 82.6149ZM38.7161 84.3886L39.2267 84.5131L39.6392 84.7141L39.5322 85.3519L38.1902 85.4589L37.2562 86.6975L36.1477 86.0203L37.2606 85.5179L38.7139 84.3886H38.7161ZM53.6727 86.0029L54.0088 85.8914L56.9504 87.1169L56.7169 85.9832L58.1615 86.1361L58.1156 87.2348L58.7899 87.8858L57.8778 88.3401L57.8058 88.67L60.6208 90.4895L60.8346 90.3738L60.9743 91.7652L60.5946 91.8766L59.953 90.6927L58.0131 90.2514L57.797 89.3624L56.1058 88.7661C55.8833 86.2082 52.4616 87.6346 52.5074 90.0505L52.1343 90.3869L51.7088 92.1693L53.3323 94.4432L57.7076 97.628L57.9301 97.4096L57.8341 98.801L57.0791 98.2899L55.8745 98.22L55.6694 97.0972C52.4485 95.365 53.6029 96.1055 50.993 93.7508L50.3013 90.8499L53.6705 86.005L53.6727 86.0029ZM59.857 96.2846L59.6955 96.4572L60.6644 96.5315L61.1161 97.2676L62.0632 97.3834L63.5558 98.5149L65.8427 100.441L65.6681 101.335L63.8788 101.361C61.9366 97.9841 59.7654 100.044 57.5134 95.3388L56.1757 94.9959L55.9684 94.2575L55.7873 94.3668L54.9668 93.043L54.4299 92.2042L55.4905 92.2523L59.8548 96.2824L59.857 96.2846ZM66.3795 86.8264C68.2409 86.9115 67.6561 90.3279 68.7144 91.49C70.218 93.1413 69.9997 94.1898 71.4334 96.1951C72.2234 97.2982 77.1965 104.762 76.7558 105.348C75.6254 104.767 70.8312 97.7831 70.4013 96.5227C70.2311 96.0225 68.0576 91.7936 67.7761 91.5533C64.6774 88.9059 66.5279 89.5765 66.3773 86.8285L66.3795 86.8264ZM74.423 84.607L74.1873 84.6726L74.3728 82.7678L73.3843 82.2894L73.1312 81.4332L72.8584 81.5489L69.6528 75.6337C71.3352 75.7582 71.8437 77.2589 71.8219 78.4712C73.1639 79.2008 73.1377 78.8665 73.2665 80.5878L74.2833 81.1579L77.6592 87.5428C77.6177 89.832 78.7655 88.6787 79.0929 90.9417C79.3678 92.8399 80.8757 92.9338 80.2625 94.5459L78.8615 94.2575C78.4295 90.8128 77.1856 89.9456 76.5375 87.2086L76.3542 87.3157L74.4252 84.6114L74.423 84.607ZM74.5387 88.244L74.028 88.742L73.0657 88.7049L71.0908 84.2182L72.9129 84.3711L72.6904 84.4672L74.5408 88.244H74.5387ZM76.2931 90.5725L76.1011 90.6949L75.8698 91.479C77.334 92.5647 77.2053 94.1461 78.3029 95.4917L78.2134 96.8963L76.5921 95.8565C76.7012 94.1309 76.5113 93.7551 75.3984 92.4118L75.6778 91.6407L73.9364 90.4109L74.0673 89.1396L74.2179 88.978L76.2953 90.5747L76.2931 90.5725ZM79.7606 85.3738C77.8141 85.6206 80.197 88.4056 80.0923 89.9019L81.0525 90.9286L81.1179 91.8045L81.7398 91.822L81.4954 90.7713L81.6351 89.915L81.4081 89.9609L79.7606 85.3738ZM80.2778 83.635C80.2625 84.216 80.5877 84.8211 81.0568 85.1903C81.5936 84.9456 81.3449 84.1025 81.2969 83.3205L80.3105 83.0212L80.28 83.6372L80.2778 83.635ZM79.3416 81.2715L79.5053 81.1492C79.5315 80.1313 79.6624 78.0452 78.543 77.9011L78.5233 78.6568C78.4993 79.6027 78.2505 79.3821 78.1218 80.0942L78.7503 80.5005L79.3416 81.2693V81.2715ZM81.6875 69.026C82.0824 69.8473 82.4774 70.9242 83.3263 71.0312L82.8637 68.4865L82.724 68.3248L81.6875 69.026ZM55.4512 107.08C53.904 106.335 53.2756 105.206 52.0426 104.633C49.3477 103.382 46.3515 101.885 43.4056 101.282C41.6097 100.913 26.7294 99.109 25.6514 99.2663C29.0884 100.675 41.4722 103.076 45.2386 103.43C47.7678 103.668 51.0694 106.21 53.2297 107.504C54.1375 108.045 56.0884 109.03 57.1249 109.566C59.0016 110.535 61.1161 109.443 59.6977 108.753C58.6983 108.266 56.754 107.707 55.4512 107.078V107.08ZM60.9874 108.825L61.7184 109L63.486 110.083L65.1117 111.038L66.2268 110.625L66.6305 111.247L67.5339 111.363L68.0598 112.045L69.0178 112.117L68.9348 112.3L71.32 113.139L72.003 114.203L74.0586 114.834L74.076 115.103L72.1252 115.216C71.1672 114.605 67.9463 113.434 67.4161 112.951C66.0631 111.719 63.5514 111.918 61.8624 111.206L61.5984 110.324L60.3262 110.549L60.9896 108.825H60.9874ZM59.7217 115.791C59.9901 115.824 64.9284 117.27 65.5132 117.541C67.3419 118.384 69.9888 118.604 70.0739 120.059L42.2949 113.618L42.4738 112.953L52.5773 115.018L52.6667 114.646C52.3176 113.657 48.5097 113.277 47.1589 113.067C46.2359 112.923 45.1513 112.473 44.3832 112.257C42.5567 111.743 42.8033 112.685 41.8301 112.999C39.0413 112.296 36.4336 110.981 33.1778 110.223C30.3147 109.555 31.2945 109.666 29.2106 108.408C27.2444 107.222 27.2488 109.428 26.0922 106.477C27.1462 106.505 35.1068 109.858 37.2453 110.417C37.8323 110.57 42.2818 111.112 43.3009 111.088C44.9615 111.049 47.4928 112.311 49.0247 112.58C51.8986 113.085 52.6362 113.032 54.5696 114.69C54.5761 114.697 59.1674 115.721 59.7239 115.791H59.7217ZM55.2592 119.258L52.5271 117.772L51.9619 118.061C50.1136 117.763 49.9085 116.713 48.4246 117.543C47.2571 117.049 47.4143 116.346 45.9151 116.907C46.3472 118.27 47.5103 118.851 49.0203 118.495L49.8146 118.899C50.993 118.565 51.5757 119.009 52.346 119.734C53.7753 121.077 53.6465 119.972 54.8053 120.022C56.6427 120.099 58.6066 120.92 59.8374 122.064L60.6273 121.477C62.085 121.879 65.367 123.144 66.2726 121.453L63.5994 120.961L63.6474 120.76L55.257 119.26L55.2592 119.258ZM45.7296 115.955C45.1928 115.378 37.8782 112.779 36.7369 112.543C33.1428 111.8 30.8254 110.293 27.6372 109.408C25.8107 108.901 20.0934 107.008 18.8278 106.014C16.6565 104.31 17.0362 106.088 15.2599 103.899C14.7362 103.251 12.4951 101.422 11.8645 101.944C9.62993 103.788 24.8309 109.913 26.9127 110.586C28.9247 111.237 44.7215 116.278 45.7318 115.955H45.7296ZM45.2605 117.836C41.8737 118.098 35.493 114.839 32.0103 114.343C27.6634 113.725 29.5728 113.941 25.7213 112.342C24.9051 112.003 20.3248 109.745 20.0825 109.804C18.2539 111.761 27.5019 113.93 28.9945 115.085C32.6038 117.879 33.6447 119.126 38.8929 120.324C40.7172 120.739 43.7351 121.431 45.5179 121.689C46.7814 121.872 47.5517 122.451 48.3897 122.447C49.6859 122.44 49.8408 121.949 51.6542 122.137C54.5281 122.434 62.4058 123.377 63.043 126.313C61.6617 126.274 61.426 126.009 60.3982 125.216C58.5935 123.825 59.5231 125.293 57.9061 124.6C56.3743 123.943 54.2379 123.36 52.4507 123.165C50.0067 122.901 48.4028 123.047 45.9587 122.617C44.3287 122.331 40.7761 121.431 39.5322 121.357C33.7757 121.007 21.7803 111.601 19.238 112.338L18.9893 112.715L28.3813 117.827L28.0824 118.281C25.9111 118.253 18.1535 113.157 15.5982 112.119C12.5628 110.887 7.17062 106.335 5.84604 104.006L14.5115 110.035L15.0199 109.511L14.6577 111.254L14.8039 110.933L18.6074 112.318C19.2206 110.238 18.5332 111.086 17.9047 110.66C16.5889 109.771 18.8911 110.182 19.3057 109.688L19.4824 109.487L17.5425 108.091L17.7978 107.722L26.0944 111.558L26.3847 111.038C30.1031 113.934 31.7244 113.185 35.6589 114.566C37.5923 115.243 45.0204 116.306 45.2626 117.836H45.2605ZM24.7327 107.073L20.0411 105.166L19.6396 104.402L17.0144 103.926L16.6391 102.499L16.015 102.355L15.6113 101.379C14.3565 100.92 12.1765 100.173 11.631 99.0479C14.1143 98.1435 18.0291 103.596 20.8463 104.118L20.7481 104.369L24.8462 105.54L25.4398 106.621L24.7327 107.075V107.073ZM22.5178 117.305L24.4796 119.14L24.2265 119.463L21.2042 118.443L21.3787 118.224L18.4481 116.16C16.3925 115.865 15.4389 115.579 13.6626 114.515C11.0549 112.951 11.967 113.709 10.3937 111.51L9.40735 111.521L5.98352 108.307L5.77839 108.493L5.88096 107.626L4.53456 107.611L4.78769 105.666C6.00098 105.824 5.12811 107.095 7.43466 107.281L7.41066 108.207L8.07186 108.96L9.36589 109.026L9.85033 111.112L11.9038 111.215L12.8617 112.641L13.7586 112.796L14.0728 114.078L14.5747 113.576L15.7924 113.989L15.9364 114.734L16.135 114.498L22.5178 117.307V117.305ZM18.6074 119.015L18.5812 119.002L18.4503 119.251C18.5048 119.168 18.5572 119.092 18.6074 119.015ZM24.8375 119.157L29.036 121.811L28.8221 122.091C33.588 120.974 45.5769 129.561 51.0803 127.479C50.8665 126.988 47.938 126.761 47.0193 126.746C44.8633 126.711 44.3832 124.799 46.4825 125.234C46.7029 125.28 54.179 126.053 55.3028 126.086L55.4163 125.415L43.8442 123.722L44.2959 125.555L38.0047 123.305L24.8375 119.155V119.157ZM35.5978 117.591C34.3845 117.298 31.5979 116.324 31.0916 115.339L33.4985 115.929L38.3102 117.707L46.7945 120.199L49.8256 120.225L50.4562 120.905L50.3471 121.16L48.3308 120.99L47.3051 121.403L47.3553 121.066L42.9081 119.467L40.3964 119.406C40.3375 119.367 35.8029 117.641 35.5956 117.591H35.5978ZM16.8966 109.384L15.9975 108.587L14.8715 108.851L14.4874 108.056L13.6451 107.827L11.6594 106.588L11.6419 105.308L10.4766 105.216C9.63429 103.283 7.50013 103.565 7.39538 101.005L10.6534 103.609L10.6905 104.502L11.8841 104.555L11.6834 104.74L13.6277 106.593L13.8262 106.422L14.0619 106.962C15.0919 107.263 16.9315 108.041 16.8987 109.384H16.8966ZM9.31351 113.222L9.54919 114.517L8.9229 114.5C8.46465 114.002 8.54757 113.515 7.62015 113.209C6.56179 112.86 6.42868 113.227 6.2672 111.962L8.68068 112.163L8.78543 112.969L9.31351 113.222ZM11.1204 114.292L13.68 116.724C16.6456 116.868 15.908 119.196 17.4028 118.552C17.8567 118.358 20.6063 115.966 18.6052 119.017L28.4206 123.504L36.4467 126.304L45.7733 129.522L45.5769 130C44.608 130.214 29.1298 125.147 27.4408 124.382C24.9444 123.253 22.5833 121.89 19.8883 121.414C18.4459 121.16 14.2103 118.218 13.68 116.721C11.9714 116.529 10.1231 116.164 9.97908 114.144L11.1204 114.29V114.292ZM5.90714 95.7997L5.68892 95.8871L4.84224 94.1724L5.94206 93.3707L6.53124 94.1483L6.48105 95.1226C7.64852 95.9963 8.69814 98.9823 10.9065 100.586L11.1313 101.896L9.80887 101.564L9.14112 100.522L9.09311 99.3668C7.20553 99.2248 6.45705 97.0251 5.90714 95.7997ZM7.56123 94.0216L7.61142 93.0474L6.92403 92.1606L7.03096 90.7691C7.87983 90.8805 7.82527 91.0247 7.87546 91.8766L8.67414 92.3178L8.62613 93.6678L9.68448 95.1837L9.44444 95.9744L10.2169 95.8347L11.5633 97.6411L10.2409 98.1654L10.0031 98.0867L9.78923 96.3327L8.85089 96.0138L8.50175 94.8845L7.56123 94.0238V94.0216ZM10.014 93.2571L9.523 91.4113L10.5704 91.4419C10.5661 92.3309 11.3909 93.8906 11.6943 94.7359C12.4602 96.8722 12.2114 95.7254 13.5666 97.3812L13.5338 98.1588C12.4908 98.0452 12.6239 97.7897 12.2769 97.012C11.8754 96.1121 11.5131 96.2431 10.8083 95.8128L10.4613 93.7551L10.0118 93.2593L10.014 93.2571ZM5.94206 92.2108L5.21758 92.7307L3.82753 91.4048L4.63057 89.7862L4.16577 87.1256L4.504 82.178L5.00154 81.6167L4.77459 81.5752L5.80894 75.4L7.04405 75.0133L7.26009 75.2056L6.37413 78.4188L6.07735 78.9998L6.03371 81.0902L5.77403 81.064L5.21103 85.9876L4.97317 86.0007L5.44234 86.7477L5.20012 88.8272C4.93171 90.6534 5.70856 91.0247 5.94642 92.2174L5.94206 92.2108ZM2.74517 92.9666L2.81064 92.1606L2.59897 90.0701L3.11396 89.5524L2.77136 88.7136L1.15873 89.393L1.01689 89.5918L2.12544 90.8674L1.73483 93.8578L3.54603 95.7844L3.95628 95.5572L3.3911 95.1946L3.43038 93.3554L2.74299 92.9644L2.74517 92.9666ZM1.37477 85.7211L2.5335 85.5463L2.60988 83.6328C2.96994 82.8377 3.6966 82.4467 2.87392 81.5577L1.67809 82.5428L1.37477 85.7233V85.7211ZM2.71026 79.8473L2.74081 81.1973L3.53948 80.0461L3.1336 78.7005L4.1003 77.6695L4.03484 77.2327C4.0523 76.5446 4.11994 76.8438 3.84935 76.2803L2.77572 77.6062C1.51443 78.1938 0.261861 78.7158 0.189849 80.1509L0.818315 80.1684C1.93777 80.2012 1.689 79.8954 2.71026 79.8451V79.8473ZM3.87336 75.9526L3.6966 75.8434L4.73313 73.8294C5.55363 74.3952 5.03864 74.7862 4.87497 75.7123L3.87336 75.9548V75.9526ZM2.09052 74.7731L1.90067 73.6001L3.48275 71.1099L2.74299 69.7927C2.04033 70.5638 1.13473 71.632 0 71.6298L2.54223 68.7879L2.37202 68.6634C2.41348 67.7787 2.27164 67.7897 3.23398 67.7416C3.21216 68.5979 3.17943 69.2466 4.01302 69.4651L4.87497 68.4755L5.28304 68.6765L4.85315 69.7731L4.6022 70.5769L4.39271 70.5005L2.09052 74.7731ZM47.8638 98.2178C46.2271 98.0409 47.2746 96.8744 44.7607 96.8001L41.2038 96.6953L39.1111 96.8591L38.271 96.798C37.2541 96.7674 37.409 96.8744 36.7914 96.3502L38.7183 95.5507L40.9965 95.9919L41.6184 95.5572C42.5851 95.6643 50.2489 95.8827 47.8616 98.2156L47.8638 98.2178ZM68.5682 102.054L68.6926 102.237C69.8492 103.836 70.4144 104.583 72.2321 106.055C72.7035 106.438 73.524 107.405 74.0739 107.812C74.9162 108.432 76.0444 108.039 76.0356 109.649C73.7356 109.583 70.4078 106.68 69.4848 104.729L68.0423 103.779L66.3512 103.725L68.5682 102.054ZM69.7532 100.957L68.553 99.5808L63.6343 96.9487L63.4816 96.147C61.8231 95.6184 56.778 91.9989 56.6514 90.3344L57.5068 90.341C58.1898 91.4244 60.743 92.8093 62.3971 93.0037C63.1106 93.9037 63.2699 93.5236 63.8351 94.1811C64.5661 95.033 63.918 95.2012 64.1886 95.9766L65.5045 96.1099L65.8863 96.8089L66.9011 96.6538L66.6654 96.8438L67.5492 98.3336L67.7368 98.1741L69.0156 98.2811L69.033 98.4712L68.553 99.5786L70.5431 99.6376L70.9032 101.14L72.2212 102.193L72.2932 103.41C73.5589 104.085 73.7444 103.489 74.2637 105.061L75.2457 106.239L76.1317 106.909L75.5948 107.497C73.9888 107.292 74.0717 105.356 73.5196 104.782C72.1514 103.364 71.7127 104.967 71.1497 101.759L70.0259 101.647L69.751 100.955L69.7532 100.957ZM74.663 98.0714L75.1191 97.2938C75.9964 97.9338 76.7427 98.5389 76.7143 99.6289L76.6837 100.765L77.6919 100.697L78.9357 102.724L78.9117 103.67L78.6935 103.814L77.046 101.562L75.7781 101.352C75.5665 100.715 76.1949 100.511 75.6799 99.5874C75.381 99.0522 75.0406 98.8382 74.6609 98.0671L74.663 98.0714ZM78.2353 97.5909C78.2134 98.4559 78.6913 100.348 79.9025 99.9609C80.3585 98.9954 79.1518 97.1365 78.2505 97.0229L78.2353 97.5909ZM69.799 116.095L66.6414 114.358L66.0849 114.708L66.0326 115.795L67.8176 116.215L67.9158 116.047L68.3587 117.152L70.8595 117.611L71.069 116.704L71.0559 116.134L70.218 116.11L69.8012 116.097L69.799 116.095ZM29.8652 127.372L29.7277 126.477L26.4698 126.687L26.5003 126.459L25.3743 125.968C26.0988 127.449 27.9645 127.971 29.7343 127.975L31.4255 129.166L31.5389 129.004L31.48 129.69L32.3791 129.391L34.319 129.443L34.3561 129.157L33.4025 128.714L33.1494 128.054L31.6415 128.277L31.5935 127.508L29.8652 127.375V127.372ZM24.4796 126.632C24.4229 125.064 20.8441 123.987 19.3842 123.871L19.3624 123.161L18.0422 122.962L18.4066 123.836L17.6341 124.159L19.1115 125.206C19.5697 125.127 19.8338 125.013 20.3706 125.061L20.9445 125.103L21.4857 125.787L24.4774 126.632H24.4796ZM16.3467 123.325C16.482 121.634 15.3494 120.509 14.0445 119.557L13.5622 120.131L13.8306 120.9L13.3113 121.534L14.099 121.872L14.5485 121.066C15.524 121.344 15.1748 121.348 15.0635 122.014L16.3467 123.323V123.325ZM13.1803 119.926C13.0843 118.58 11.775 117.637 10.3108 117.569C10.4373 118.552 12.0631 119.801 13.1803 119.926ZM5.91805 100.693L4.47782 97.8465L4.70258 97.7547C3.84935 97.1562 3.55258 97.6586 3.5373 96.3458L4.93389 96.6123L5.19139 98.445C6.3043 98.8425 6.8913 99.1068 7.24045 100.343L6.15155 100.666L5.91587 100.69L5.91805 100.693ZM4.85315 101.702L5.28741 102.427L6.12536 102.56L6.22138 102.757L5.40961 103.473L5.18921 103.373L5.02554 102.475C3.32563 102.189 3.00922 100.577 3.04631 99.1724L3.91264 100.129L5.15429 100.186L4.85533 101.7L4.85315 101.702ZM36.056 3.11513C37.0948 2.23483 38.2731 2.66078 38.463 1.15139C37.5072 1.21692 37.5596 1.71932 36.0953 1.99018C34.8362 2.22173 34.2819 2.15401 34.2143 3.48865L36.0539 3.11513H36.056Z" fill="white" fill-opacity="0.66"/>
</g>
<defs>
<clipPath id="clip0_3029_93841">
<rect width="85" height="130" fill="white"/>
</clipPath>
</defs>
</svg>
