<svg width="756" height="1029" viewBox="0 0 756 1029" fill="none" xmlns="http://www.w3.org/2000/svg">
<path d="M96.2197 841.26C91.8726 841.26 87.6351 839.041 85.2606 835.075C81.6441 829.036 83.5802 821.214 89.6442 817.612C90.3383 817.175 160.952 774.79 248.99 703.444C254.469 699.005 262.506 699.842 266.963 705.263C271.419 710.72 270.579 718.724 265.136 723.163C175.6 795.746 103.526 839.005 102.832 839.441C100.786 840.678 98.5211 841.26 96.2562 841.26H96.2197Z" fill="#4E697C"/>
<path d="M287.165 700.351C283.732 700.351 280.334 699.005 277.814 696.313C272.992 691.183 273.284 683.106 278.435 678.303C363.879 598.88 400.19 498.683 391.898 440.762C388.537 417.296 378.272 401.106 361.432 392.628C305.065 364.323 260.023 409.765 185.246 492.571C180.533 497.81 172.423 498.21 167.2 493.517C161.939 488.824 161.537 480.747 166.25 475.544C236.096 398.231 296.408 331.433 372.939 369.889C397.341 382.15 412.647 405.399 417.177 437.161C427.953 512.363 376.921 621.583 295.823 696.931C293.376 699.223 290.234 700.351 287.092 700.351H287.165Z" fill="#4E697C"/>
<path d="M21.7701 620.237C16.4002 620.237 11.3955 616.854 9.64203 611.469C7.45021 604.811 11.0667 597.608 17.7518 595.425C18.5554 595.133 70.7573 576.87 140.75 503.486C145.608 498.393 153.681 498.174 158.832 503.013C163.946 507.852 164.166 515.929 159.307 521.022C84.164 599.863 28.1629 618.855 25.825 619.619C24.5099 620.055 23.1583 620.274 21.8066 620.274L21.7701 620.237Z" fill="#4E697C"/>
<path d="M68.3772 782.248C64.1397 782.248 59.9753 780.138 57.5643 776.318C53.8016 770.351 55.5916 762.493 61.5461 758.745C62.3863 758.2 147.246 704.79 225.567 640.684C284.308 592.623 337.789 511.854 337.789 471.215C337.789 464.593 336.254 459.973 333.222 457.499C312.254 440.363 276.272 470.124 249.824 498.102C243.065 505.269 235.723 514.146 227.211 524.479C204.964 551.438 177.274 584.983 139.319 611.833C97.8938 641.157 38.057 670.736 35.5364 671.973C29.1802 675.066 21.5453 672.483 18.4037 666.189C15.2621 659.894 17.8557 652.254 24.212 649.125C24.7965 648.834 84.7429 619.219 124.488 591.059C159.667 566.173 186.151 534.084 207.448 508.289C215.887 498.065 223.851 488.424 231.23 480.638C280.619 428.466 320.4 414.058 349.478 437.816C355.835 443.019 363.397 453.024 363.397 471.215C363.397 519.822 307.724 606.449 241.823 660.367C162.224 725.492 76.0486 779.738 75.1719 780.284C73.0531 781.63 70.7152 782.248 68.3772 782.248Z" fill="#4E697C"/>
<path d="M45.6949 726.037C41.1286 726.037 36.745 723.6 34.407 719.343C31.0462 713.158 33.3842 705.445 39.6309 702.098C40.4711 701.625 125.806 655.856 163.578 626.422C226.447 577.451 270.576 512.618 271.014 511.963C274.96 506.142 282.887 504.577 288.768 508.507C294.613 512.436 296.184 520.331 292.238 526.189C290.339 528.99 245.37 595.097 179.323 646.505C139.834 677.248 55.3389 722.617 51.7589 724.546C49.8228 725.564 47.7771 726.074 45.7314 726.074L45.6949 726.037Z" fill="#4E697C"/>
<path d="M663.722 849.409C654.005 849.409 602.497 845.953 510.916 779.846C470.257 750.485 421.855 721.307 362.237 747.211C355.771 750.012 348.209 747.065 345.396 740.626C342.584 734.186 345.543 726.655 352.008 723.853C430.001 689.945 494.769 736.733 525.93 759.217C616.927 824.924 663.32 823.978 663.832 823.942C670.773 823.614 676.8 829.035 677.202 835.984C677.567 842.933 672.343 848.9 665.366 849.336C665.183 849.336 664.635 849.373 663.759 849.373L663.722 849.409Z" fill="#4E697C"/>
<path d="M129.613 886.593C125.339 886.593 121.174 884.446 118.763 880.589C115.037 874.623 116.864 866.764 122.855 863.053C123.951 862.362 232.556 795.018 312.119 746.338C318.146 742.664 326 744.519 329.69 750.522C333.379 756.525 331.516 764.348 325.489 768.022C245.999 816.629 137.43 883.973 136.371 884.628C134.252 885.938 131.914 886.556 129.613 886.556V886.593Z" fill="#4E697C"/>
<path d="M692.907 782.247C692.688 782.247 692.432 782.247 692.213 782.247C588.138 776.681 520.082 707.409 491.113 644.431C488.154 638.027 491.004 630.46 497.397 627.549C503.826 624.602 511.424 627.44 514.347 633.807C540.21 690.018 600.851 751.832 693.565 756.816C700.615 757.18 706.022 763.183 705.656 770.205C705.291 777.008 699.629 782.247 692.907 782.247Z" fill="#4E697C"/>
<path d="M487.528 604.738C481.793 604.738 476.569 600.845 475.145 595.06C463.638 548.6 457.464 509.161 452.459 477.436C442.231 412.129 436.605 376.147 400.878 350.97C395.107 346.895 393.755 338.964 397.846 333.216C401.938 327.467 409.901 326.121 415.673 330.196C460.204 361.594 467.181 406.126 477.738 473.543C482.889 506.396 488.697 543.615 499.949 588.984C501.629 595.824 497.465 602.7 490.597 604.41C489.574 604.665 488.551 604.774 487.528 604.774V604.738Z" fill="#4E697C"/>
<path d="M12.7822 555.622C8.6908 555.622 4.63593 553.657 2.1884 550.019C-1.75688 544.198 -0.222607 536.266 5.62225 532.337C6.49898 531.755 93.7701 472.779 161.022 400.778C235.289 321.246 305.719 290.139 370.195 308.294C376.99 310.222 380.935 317.244 379.036 324.011C377.1 330.778 370.013 334.708 363.255 332.816C308.715 317.462 246.978 346.168 179.726 418.133C110.428 492.316 23.5587 551.001 19.9056 553.439C17.7138 554.931 15.2297 555.622 12.7822 555.622Z" fill="#4E697C"/>
<path d="M700.393 714.722C682.64 714.722 666.018 712.867 650.931 709.156C644.064 707.482 639.863 700.57 641.543 693.766C643.223 686.926 650.164 682.779 656.995 684.416C672.521 688.2 690.055 689.764 709.124 689.073C709.27 689.073 709.453 689.073 709.599 689.073C716.43 689.073 722.129 694.457 722.385 701.334C722.64 708.356 717.124 714.286 710.074 714.541C706.786 714.65 703.572 714.722 700.357 714.722H700.393Z" fill="#4E697C"/>
<path d="M611.447 691.62C609.073 691.62 606.662 690.965 604.543 689.582C532.176 643.158 521.29 544.853 513.363 473.07C504.45 392.447 482.714 306.366 389.16 279.261C344.337 266.309 299.076 270.566 250.746 292.359C244.317 295.269 236.755 292.432 233.833 286.028C230.91 279.625 233.76 272.094 240.189 269.183C293.56 245.098 346.091 240.259 396.32 254.812C518.879 290.321 532.834 416.423 538.788 470.305C546.167 536.994 556.25 628.351 618.388 668.189C624.342 672.01 626.023 679.868 622.224 685.798C619.776 689.582 615.648 691.656 611.447 691.656V691.62Z" fill="#4E697C"/>
<path d="M12.7839 481.693C9.27695 481.693 5.77003 480.274 3.24944 477.436C-1.46298 472.197 -0.988085 464.156 4.27229 459.463C4.78371 458.99 56.6934 412.821 109.918 362.176C141.225 332.379 170.376 309.204 198.979 291.34C204.97 287.592 212.861 289.411 216.587 295.378C220.349 301.345 218.523 309.204 212.532 312.915C185.39 329.869 157.59 351.989 127.526 380.586C73.9722 431.521 21.7703 477.982 21.2224 478.455C18.7748 480.638 15.7428 481.693 12.7108 481.693H12.7839Z" fill="#4E697C"/>
<path d="M727.571 651.852C599.057 651.852 585.504 542.159 575.495 461.609C574.618 454.66 573.778 447.856 572.901 441.271C571.951 434.285 576.846 427.882 583.86 426.936C590.801 425.99 597.303 430.902 598.253 437.851C599.166 444.545 600.007 451.458 600.883 458.48C611.112 541.068 621.706 626.385 727.68 626.385C730.091 626.385 732.539 626.348 735.059 626.239C742.073 626.021 748.028 631.478 748.283 638.5C748.539 645.522 743.023 651.416 735.973 651.671C733.123 651.78 730.31 651.816 727.571 651.816V651.852Z" fill="#4E697C"/>
<path d="M575.973 403.179C570.348 403.179 565.197 399.468 563.626 393.793C545.507 327.504 505.872 269.765 460.209 243.133C384.81 199.11 290.416 201.803 207.674 250.41C124.421 299.271 23.963 391.974 22.9766 392.92C17.7893 397.722 9.71612 397.395 4.89411 392.265C0.0720969 387.098 0.36434 379.058 5.55165 374.255C9.75265 370.363 109.079 278.715 194.706 228.471C285.557 175.134 389.669 172.406 473.177 221.195C525.16 251.537 568.192 313.57 588.321 387.135C590.184 393.902 586.165 400.924 579.334 402.779C578.202 403.07 577.069 403.216 575.973 403.216V403.179Z" fill="#4E697C"/>
<path d="M743.277 591.968C742.693 591.968 742.145 591.968 741.56 591.859C656.992 580.544 641.832 533.501 629.302 436.287C616.48 336.781 587.146 273.112 531.182 223.45C490.304 187.177 448.514 165.202 403.362 156.288C396.421 154.906 391.928 148.211 393.316 141.335C394.704 134.422 401.426 129.984 408.33 131.33C458.085 141.153 503.821 165.093 548.205 204.495C609.138 258.596 640.992 326.995 654.655 433.086C667.915 535.903 683.112 558.387 744.921 566.646C751.935 567.592 756.83 573.995 755.88 580.944C755.003 587.347 749.524 591.968 743.241 591.968H743.277Z" fill="#4E697C"/>
<path d="M45.701 283.991C42.2306 283.991 38.7602 282.572 36.2396 279.807C31.4907 274.604 31.8925 266.527 37.1164 261.834C41.427 257.941 143.712 166.548 261.486 137.915C293.304 130.166 322.419 126.309 350.474 126.055C357.597 126.055 363.296 131.694 363.369 138.679C363.442 145.701 357.743 151.45 350.693 151.522C325.012 151.741 297.03 155.488 267.55 162.655C156.169 189.724 55.272 279.807 54.2856 280.716C51.8381 282.936 48.7696 283.991 45.701 283.991Z" fill="#4E697C"/>
<path d="M725.31 505.596C718.99 505.596 713.474 500.902 712.634 494.499C697.657 378.912 663.062 283.99 612.577 220.03C608.23 214.5 609.18 206.496 614.733 202.166C620.285 197.837 628.322 198.783 632.706 204.313C686.04 271.911 722.461 371.126 738.023 491.261C738.936 498.247 733.968 504.613 726.99 505.523C726.442 505.596 725.895 505.632 725.347 505.632L725.31 505.596Z" fill="#4E697C"/>
<path d="M595.773 194.562C592.413 194.562 589.052 193.252 586.531 190.633C502.877 103.861 421.998 76.101 307.366 94.9108C286.105 98.4035 264.881 103.242 244.242 109.318C237.483 111.283 230.36 107.463 228.351 100.696C226.342 93.9648 230.214 86.8702 237.009 84.8692C258.635 78.5023 280.918 73.4451 303.202 69.7705C425.651 49.6874 515.881 80.5397 604.979 172.987C609.874 178.045 609.691 186.122 604.614 190.997C602.13 193.362 598.952 194.526 595.773 194.526V194.562Z" fill="#4E697C"/>
<path d="M103.235 173.97C99.3988 173.97 95.5997 172.26 93.0791 168.986C88.805 163.383 89.8644 155.415 95.4535 151.122C97.0244 149.921 135.016 121.252 201.355 96.6936C207.967 94.256 215.346 97.6032 217.794 104.188C220.241 110.774 216.881 118.123 210.269 120.56C147.473 143.772 111.381 171.059 111.015 171.314C108.714 173.097 105.974 173.934 103.271 173.934L103.235 173.97Z" fill="#4E697C"/>
<path d="M575.972 101.86C572.94 101.86 569.872 100.805 567.424 98.6219C418.161 -34.7561 221.372 58.0919 219.399 59.0378C213.043 62.1303 205.408 59.4744 202.303 53.1439C199.235 46.8133 201.865 39.2094 208.221 36.1169C210.376 35.0618 262.286 10.2854 334.58 2.93611C430.983 -6.85076 517.414 19.672 584.52 79.6303C589.781 84.3236 590.219 92.3641 585.507 97.6032C582.986 100.405 579.479 101.824 575.972 101.824V101.86Z" fill="#4E697C"/>
<path d="M466.711 702.715C463.423 702.715 460.172 701.478 457.688 698.968C404.828 646.322 410.016 566.863 410.235 563.516C410.746 556.494 416.956 551.255 423.934 551.728C430.984 552.237 436.244 558.313 435.77 565.335C435.733 566.026 431.349 636.681 475.77 680.958C480.775 685.943 480.775 693.983 475.77 698.968C473.286 701.442 469.999 702.715 466.747 702.715H466.711Z" fill="#4E697C"/>
<path d="M405.891 698.678C401.873 698.678 397.891 696.786 395.407 693.257C382.475 674.92 376.265 650.435 376.009 649.416C374.292 642.576 378.493 635.7 385.325 633.99C392.192 632.28 399.096 636.428 400.813 643.268C400.85 643.486 406.183 664.26 416.302 678.631C420.357 684.38 418.969 692.311 413.197 696.386C410.969 697.95 408.412 698.714 405.855 698.714L405.891 698.678Z" fill="#4E697C"/>
<path d="M629.457 901.001C628.69 901.001 627.923 900.928 627.156 900.782C559.429 888.558 523.994 862.035 495.501 840.715L489.51 836.24C483.847 832.056 482.678 824.052 486.879 818.413C491.08 812.773 499.117 811.609 504.779 815.793L510.843 820.304C538.533 841.042 569.913 864.509 631.686 875.678C638.627 876.915 643.229 883.574 641.987 890.486C640.855 896.635 635.485 900.964 629.421 900.964L629.457 901.001Z" fill="#4E697C"/>
<path d="M170.156 937.965C166.613 937.965 163.106 936.51 160.585 933.672C155.909 928.396 156.384 920.356 161.681 915.699C167.855 910.242 313.757 782.285 398.142 779.083C422.946 778.137 443.659 781.703 463.349 790.325C469.815 793.163 472.774 800.658 469.924 807.097C467.075 813.537 459.55 816.484 453.084 813.646C437.084 806.661 419.914 803.75 399.129 804.551C323.803 807.388 180.129 933.49 178.668 934.763C176.22 936.91 173.188 937.965 170.193 937.965H170.156Z" fill="#4E697C"/>
<path d="M583.429 951.135C583.027 951.135 582.661 951.135 582.26 951.098C545.327 947.788 508.87 924.576 470.294 900.017C461.052 894.124 451.481 888.048 441.764 882.154C407.681 861.452 376.959 872.076 351.424 885.21C345.141 888.448 337.433 885.974 334.182 879.752C330.931 873.495 333.415 865.818 339.661 862.58C369.653 847.154 409.873 833.001 455.061 860.433C464.997 866.473 474.678 872.621 484.029 878.588C519.939 901.436 553.839 923.011 584.561 925.776C591.611 926.395 596.762 932.616 596.141 939.602C595.557 946.223 589.968 951.171 583.429 951.171V951.135Z" fill="#4E697C"/>
<path d="M213.812 981.005C210.159 981.005 206.506 979.44 203.985 976.42C199.456 970.999 200.186 962.995 205.629 958.484C208.223 956.337 269.557 905.511 303.494 882.845C309.339 878.915 317.303 880.48 321.248 886.337C325.193 892.195 323.622 900.09 317.741 904.019C284.9 925.958 222.616 977.548 221.995 978.094C219.62 980.059 216.698 981.041 213.812 981.041V981.005Z" fill="#4E697C"/>
<path d="M269.515 1013.46C266.593 1013.46 263.67 1012.48 261.259 1010.44C255.889 1005.89 255.195 997.851 259.762 992.503C262.83 988.901 335.489 904.566 401.353 912.57C435.692 916.754 453.994 931.526 470.14 944.551C484.533 956.157 498.122 967.108 523.621 971.655C530.561 972.892 535.201 979.514 533.959 986.427C532.717 993.339 526.105 997.924 519.127 996.723C487.127 991.047 469.556 976.858 454.03 964.343C438.614 951.9 425.281 941.131 398.248 937.856C354.85 932.544 297.644 987.373 279.269 1008.95C276.748 1011.93 273.132 1013.46 269.515 1013.46Z" fill="#4E697C"/>
<path d="M332.099 1028.3C328.957 1028.3 325.815 1027.17 323.368 1024.85C318.217 1020.04 317.961 1011.97 322.783 1006.84C346.966 981.187 408.374 947.134 467.626 1001.96C472.814 1006.76 473.106 1014.8 468.284 1019.97C463.462 1025.14 455.389 1025.43 450.201 1020.63C394.565 969.181 343.533 1022.01 341.414 1024.3C338.893 1026.96 335.496 1028.3 332.099 1028.3Z" fill="#4E697C"/>
</svg>
