<svg width="40" height="40" viewBox="0 0 40 40" fill="none" xmlns="http://www.w3.org/2000/svg">
<path fill-rule="evenodd" clip-rule="evenodd" d="M3.33333 0H36.6667C38.5076 0 40 1.49238 40 3.33333V36.6667C40 38.5076 38.5076 40 36.6667 40H3.33333C1.49238 40 0 38.5076 0 36.6667V3.33333C0 1.49238 1.49238 0 3.33333 0ZM23 12C23 10.8954 22.1046 10 21 10C19.8954 10 19 10.8954 19 12V18H13C11.8954 18 11 18.8954 11 20C11 21.1046 11.8954 22 13 22H19V28C19 29.1046 19.8954 30 21 30C22.1046 30 23 29.1046 23 28V22H29C30.1046 22 31 21.1046 31 20C31 18.8954 30.1046 18 29 18H23V12Z" fill="#4E697C"/>
</svg>
